<svg width="1366" height="773" viewBox="0 0 1366 773" fill="none" xmlns="http://www.w3.org/2000/svg">
<path d="M811.616 439.128C816.533 439.039 821.261 441.024 824.642 444.596C826.389 446.441 827.672 449.291 828.796 454.178C829.918 459.055 830.803 465.565 832.01 474.474L837.708 516.526C838.946 525.664 839.849 532.346 840.07 537.466C840.292 542.601 839.798 545.747 838.574 548.007C836.203 552.387 832.078 555.548 827.233 556.7C824.733 557.295 821.566 556.955 816.666 555.407C811.779 553.864 805.561 551.256 797.058 547.688L757.355 531.022C748.852 527.453 742.636 524.841 738.111 522.434C733.574 520.021 731.114 517.999 729.787 515.798C727.215 511.533 726.583 506.374 728.048 501.614C728.804 499.158 730.704 496.601 734.525 493.163C738.334 489.735 743.735 485.699 751.124 480.183L785.129 454.796C792.334 449.417 797.6 445.489 801.867 442.874C806.143 440.254 809.075 439.174 811.616 439.128Z" stroke="#004B72" stroke-width="5"/>
<circle cx="712.738" cy="271.64" r="69.5" stroke="#004B72" stroke-width="5"/>
<circle cx="670.738" cy="524.64" r="69.5" stroke="#004B72" stroke-width="5"/>
<rect x="493.849" y="270.26" width="124" height="124" rx="17.5" transform="rotate(-16.6403 493.849 270.26)" stroke="#004B72" stroke-width="5"/>
<rect x="848.255" y="331.91" width="24" height="24" rx="2.5" transform="rotate(22.6612 848.255 331.91)" stroke="white" stroke-width="5"/>
<rect x="902.214" y="376.752" width="40" height="40" rx="2.5" transform="rotate(-34.4661 902.214 376.752)" stroke="#F0000F" stroke-width="5"/>
<circle cx="1083.24" cy="154.14" r="23" stroke="#3E9FD4" stroke-width="5"/>
<circle cx="1043.74" cy="239.64" r="15" stroke="white" stroke-width="2"/>
<circle cx="854.738" cy="418.64" r="15" stroke="white" stroke-width="2"/>
<path d="M1155.61 135.053C1155.75 134.359 1156.18 133.756 1156.79 133.396C1156.89 133.333 1157.25 133.177 1158.43 133.181C1159.59 133.185 1161.16 133.332 1163.47 133.551L1172.09 134.369C1174.4 134.589 1175.96 134.74 1177.11 134.956C1178.27 135.174 1178.59 135.394 1178.68 135.475C1179.21 135.944 1179.52 136.616 1179.53 137.324C1179.53 137.448 1179.48 137.835 1178.89 138.853C1178.3 139.86 1177.4 141.14 1176.05 143.033L1171.03 150.09C1169.69 151.983 1168.77 153.26 1168.01 154.143C1167.25 155.036 1166.9 155.206 1166.78 155.245C1166.11 155.471 1165.37 155.401 1164.75 155.053C1164.65 154.992 1164.33 154.759 1163.75 153.737C1163.17 152.727 1162.51 151.302 1161.55 149.19L1157.95 141.313C1156.98 139.201 1156.33 137.774 1155.94 136.675C1155.55 135.563 1155.58 135.174 1155.61 135.053Z" stroke="#F0000F" stroke-width="5"/>
<path d="M839.168 259.237C839.868 259.297 840.512 259.648 840.94 260.206C841.016 260.305 841.211 260.638 841.353 261.786C841.493 262.924 841.543 264.465 841.614 266.752L842.245 287C842.318 289.339 842.364 290.921 842.293 292.092C842.221 293.279 842.042 293.628 841.972 293.729C841.571 294.316 840.938 294.705 840.233 294.797C840.111 294.813 839.718 294.815 838.629 294.343C837.552 293.877 836.162 293.119 834.108 291.996L816.094 282.147C814.04 281.024 812.652 280.263 811.678 279.608C810.693 278.946 810.482 278.615 810.43 278.503C810.127 277.86 810.113 277.117 810.39 276.463C810.438 276.35 810.635 276.01 811.595 275.309C812.543 274.617 813.899 273.803 815.908 272.601L833.294 262.203C835.257 261.029 836.582 260.239 837.615 259.743C838.658 259.242 839.043 259.227 839.168 259.237Z" stroke="#F0000F" stroke-width="5"/>
<rect x="866.216" y="233.772" width="24" height="24" rx="2.5" transform="rotate(-34.6751 866.216 233.772)" stroke="#006BA5" stroke-width="5"/>
<rect x="980.53" y="168.411" width="40" height="40" rx="2.5" transform="rotate(-7.1514 980.53 168.411)" stroke="white" stroke-width="5"/>
<circle cx="981.238" cy="309.14" r="23" stroke="white" stroke-width="5"/>
<circle cx="898.738" cy="303.64" r="15.5" stroke="#F0000F"/>
<path d="M924.924 158.046C926.191 157.904 927.459 158.306 928.413 159.152C928.917 159.6 929.31 160.318 929.698 161.539C930.086 162.757 930.447 164.395 930.938 166.626L932.799 175.083C933.29 177.313 933.65 178.953 933.809 180.221C933.969 181.491 933.915 182.308 933.645 182.927C933.135 184.095 932.152 184.992 930.942 185.395C930.302 185.608 929.484 185.589 928.233 185.315C926.984 185.041 925.385 184.535 923.208 183.845L914.953 181.228C912.776 180.538 911.176 180.03 909.998 179.534C908.818 179.037 908.138 178.582 907.738 178.039C906.981 177.013 906.694 175.713 906.95 174.464C907.086 173.803 907.512 173.104 908.375 172.158C909.236 171.213 910.475 170.081 912.161 168.541L918.555 162.7C920.241 161.16 921.48 160.028 922.499 159.256C923.519 158.483 924.254 158.121 924.924 158.046Z" stroke="#F0000F"/>
<path d="M952.3 217.749C953.315 217.264 954.487 217.228 955.529 217.65C956.023 217.851 956.561 218.301 957.312 219.282C958.061 220.26 958.927 221.634 960.13 223.545L970.926 240.686C972.157 242.641 973.043 244.051 973.614 245.173C974.187 246.3 974.363 246.992 974.326 247.529C974.248 248.665 973.689 249.713 972.791 250.411C972.366 250.742 971.695 250.983 970.439 251.137C969.19 251.29 967.526 251.342 965.216 251.413L944.694 252.041C942.384 252.111 940.72 252.161 939.464 252.084C938.201 252.007 937.516 251.808 937.072 251.504C936.133 250.861 935.511 249.849 935.364 248.721C935.294 248.187 935.427 247.486 935.93 246.325C936.432 245.17 937.23 243.71 938.339 241.682L948.067 223.914C949.152 221.933 949.932 220.508 950.62 219.487C951.31 218.462 951.819 217.979 952.3 217.749Z" stroke="#006BA5" stroke-width="2"/>
<rect x="396.18" y="505.294" width="28" height="28" rx="4.5" transform="rotate(22.6612 396.18 505.294)" stroke="#006BA5"/>
<rect x="271.433" y="610.235" width="44" height="44" rx="4.5" transform="rotate(-34.4661 271.433 610.235)" stroke="white"/>
<circle cx="388.238" cy="591.14" r="23" stroke="#F0000F" stroke-width="5"/>
<circle cx="301.738" cy="681.64" r="13.5" stroke="#F0000F" stroke-width="5"/>
<path d="M355.151 653.265C355.664 652.777 356.361 652.53 357.067 652.586C357.19 652.595 357.573 652.674 358.535 653.353C359.486 654.026 360.68 655.043 362.446 656.551L369.033 662.174C370.799 663.682 371.99 664.703 372.803 665.537C373.625 666.381 373.763 666.746 373.792 666.866C373.957 667.555 373.823 668.282 373.422 668.866C373.352 668.967 373.092 669.259 372.023 669.752C370.965 670.239 369.487 670.766 367.298 671.542L359.135 674.433C356.945 675.209 355.465 675.73 354.336 676.017C353.195 676.307 352.81 676.244 352.692 676.209C352.013 676.008 351.451 675.528 351.146 674.889C351.092 674.778 350.97 674.407 351.077 673.234C351.184 672.074 351.467 670.531 351.89 668.248L353.468 659.732C353.891 657.448 354.178 655.906 354.494 654.785C354.813 653.651 355.061 653.35 355.151 653.265Z" stroke="white" stroke-width="5"/>
<path d="M515.168 375.237C515.868 375.297 516.512 375.648 516.94 376.206C517.016 376.305 517.211 376.638 517.353 377.786C517.493 378.924 517.543 380.465 517.614 382.752L518.245 403C518.318 405.339 518.364 406.921 518.293 408.092C518.221 409.279 518.042 409.628 517.972 409.729C517.571 410.316 516.938 410.705 516.233 410.797C516.111 410.813 515.718 410.815 514.629 410.343C513.552 409.877 512.162 409.119 510.108 407.996L492.094 398.147C490.04 397.024 488.652 396.263 487.678 395.608C486.693 394.946 486.482 394.615 486.43 394.503C486.127 393.86 486.113 393.117 486.39 392.463C486.438 392.35 486.635 392.01 487.595 391.309C488.543 390.617 489.899 389.803 491.908 388.601L509.294 378.203C511.257 377.029 512.582 376.239 513.615 375.743C514.658 375.242 515.043 375.227 515.168 375.237Z" stroke="#F0000F" stroke-width="5"/>
<rect x="527.216" y="521.772" width="24" height="24" rx="2.5" transform="rotate(-34.6751 527.216 521.772)" stroke="white" stroke-width="5"/>
<rect x="466.855" y="552.109" width="43" height="43" rx="4" transform="rotate(-7.1514 466.855 552.109)" stroke="#F0000F" stroke-width="2"/>
<circle cx="506.238" cy="460.14" r="24.5" stroke="#006BA5" stroke-width="2"/>
<circle cx="429.738" cy="463.64" r="13.5" stroke="white" stroke-width="5"/>
<path d="M475.147 503.033C475.851 502.954 476.556 503.178 477.085 503.648C477.178 503.73 477.436 504.023 477.793 505.145C478.146 506.255 478.485 507.787 478.984 510.055L480.846 518.513C481.345 520.782 481.68 522.314 481.825 523.47C481.972 524.638 481.862 525.013 481.812 525.126C481.529 525.775 480.983 526.274 480.311 526.497C480.194 526.536 479.811 526.612 478.661 526.361C477.523 526.112 476.026 525.64 473.812 524.938L465.557 522.321C463.343 521.619 461.848 521.142 460.774 520.69C459.689 520.234 459.42 519.951 459.347 519.852C458.927 519.282 458.768 518.56 458.91 517.866C458.935 517.745 459.06 517.375 459.854 516.505C460.638 515.644 461.794 514.584 463.509 513.017L469.904 507.177C471.619 505.61 472.778 504.554 473.706 503.85C474.645 503.138 475.024 503.047 475.147 503.033Z" stroke="#F0000F" stroke-width="5"/>
<path d="M217.204 662.321C217.809 661.963 218.537 661.876 219.209 662.082C219.329 662.119 219.681 662.277 220.462 663.13C221.236 663.975 222.171 665.202 223.556 667.022L235.818 683.148C237.235 685.011 238.19 686.272 238.812 687.267C239.442 688.275 239.499 688.664 239.501 688.786C239.515 689.497 239.225 690.181 238.704 690.665C238.614 690.749 238.295 690.979 237.135 691.226C235.986 691.471 234.415 691.661 232.091 691.938L211.704 694.369C209.379 694.646 207.807 694.831 206.634 694.863C205.448 694.896 205.084 694.748 204.976 694.687C204.356 694.339 203.914 693.743 203.76 693.048C203.734 692.929 203.697 692.538 204.072 691.41C204.443 690.296 205.075 688.846 206.014 686.702L214.14 668.145C215.058 666.05 215.678 664.638 216.232 663.634C216.791 662.621 217.096 662.385 217.204 662.321Z" stroke="#3E9FD4" stroke-width="5"/>
<rect x="175.891" y="772.016" width="28" height="28" rx="4.5" transform="rotate(-103.529 175.891 772.016)" stroke="#006BA5"/>
<rect x="139.997" y="637.01" width="44" height="44" rx="4.5" transform="rotate(174.929 139.997 637.01)" stroke="white"/>
<circle cx="117.317" cy="718.219" r="23" transform="rotate(-179.822 117.317 718.219)" stroke="#F0000F" stroke-width="5"/>
<circle cx="171.788" cy="667.689" r="13.5" transform="rotate(-179.822 171.788 667.689)" stroke="#F0000F" stroke-width="5"/>
<path d="M226.481 612.15C226.367 612.85 225.962 613.468 225.366 613.851C225.262 613.918 224.91 614.087 223.733 614.128C222.569 614.168 221.003 614.081 218.684 613.949L210.037 613.458C207.718 613.326 206.152 613.234 205.001 613.062C203.836 612.888 203.505 612.681 203.409 612.602C202.861 612.154 202.528 611.494 202.494 610.787C202.488 610.663 202.518 610.274 203.071 609.235C203.618 608.207 204.476 606.893 205.75 604.95L210.499 597.708C211.773 595.766 212.636 594.455 213.361 593.544C214.093 592.622 214.438 592.44 214.554 592.396C215.216 592.145 215.954 592.187 216.583 592.511C216.693 592.568 217.016 592.789 217.64 593.788C218.256 594.775 218.965 596.175 220.01 598.249L223.907 605.983C224.952 608.057 225.657 609.459 226.084 610.542C226.515 611.638 226.501 612.029 226.481 612.15Z" stroke="white" stroke-width="5"/>
<rect x="37.1284" y="665.948" width="43" height="43" rx="4" transform="rotate(-150.891 37.1284 665.948)" stroke="#F0000F" stroke-width="2"/>
<circle cx="40.7876" cy="756.689" r="13.5" transform="rotate(-179.822 40.7876 756.689)" stroke="white" stroke-width="5"/>
<path d="M17.1423 703.352C16.837 702.713 16.8171 701.975 17.0875 701.32C17.1347 701.206 17.3274 700.866 18.2705 700.161C19.2032 699.463 20.5392 698.641 22.5186 697.426L29.8991 692.894C31.8783 691.679 33.2167 690.861 34.2606 690.345C35.3164 689.823 35.7067 689.805 35.8299 689.814C36.536 689.869 37.1857 690.221 37.6174 690.783C37.6927 690.881 37.8898 691.218 38.029 692.387C38.1666 693.543 38.2119 695.112 38.2746 697.434L38.5081 706.091C38.5708 708.413 38.6101 709.981 38.535 711.144C38.4591 712.318 38.2805 712.665 38.2105 712.767C37.8098 713.351 37.18 713.738 36.4779 713.831C36.3553 713.847 35.9646 713.85 34.8823 713.385C33.812 712.926 32.4315 712.182 30.3896 711.075L22.7755 706.948C20.7335 705.841 19.3551 705.092 18.3862 704.446C17.4064 703.793 17.1956 703.464 17.1423 703.352Z" stroke="#F0000F" stroke-width="5"/>
<path d="M289.913 555.278C289.398 555.757 288.705 555.997 288.004 555.939C287.879 555.928 287.502 555.849 286.557 555.182C285.621 554.52 284.446 553.521 282.706 552.036L267.294 538.888C265.513 537.369 264.312 536.34 263.492 535.5C262.662 534.649 262.525 534.281 262.496 534.162C262.331 533.47 262.469 532.74 262.875 532.156C262.945 532.055 263.208 531.763 264.289 531.274C265.359 530.791 266.854 530.272 269.067 529.506L288.47 522.794C290.682 522.029 292.178 521.514 293.318 521.233C294.47 520.949 294.857 521.016 294.975 521.052C295.655 521.261 296.215 521.749 296.513 522.395C296.564 522.507 296.683 522.881 296.556 524.062C296.431 525.23 296.122 526.781 295.66 529.076L291.667 548.936C291.216 551.179 290.91 552.691 290.583 553.789C290.252 554.897 290.004 555.193 289.913 555.278Z" stroke="#3E9FD4" stroke-width="5"/>
<line x1="1033.27" y1="289.64" x2="1043.88" y2="300.246" stroke="#E00514" stroke-width="5" stroke-linecap="round"/>
<rect x="1349.49" y="92.4186" width="24" height="24" rx="2.5" transform="rotate(-141.68 1349.49 92.4186)" stroke="white" stroke-width="5"/>
<rect x="1332.67" y="39.6765" width="40" height="40" rx="2.5" transform="rotate(161.193 1332.67 39.6765)" stroke="#F0000F" stroke-width="5"/>
<circle cx="1120.17" cy="252.076" r="23" transform="rotate(-164.341 1120.17 252.076)" stroke="#3E9FD4" stroke-width="5"/>
<circle cx="1132.46" cy="100.364" r="15" transform="rotate(-164.341 1132.46 100.364)" stroke="white" stroke-width="2"/>
<path d="M1087.4 222.868C1087.08 223.499 1086.51 223.963 1085.82 224.146C1085.7 224.177 1085.32 224.231 1084.18 223.909C1083.06 223.591 1081.6 223.028 1079.43 222.193L1071.35 219.078C1069.18 218.243 1067.72 217.675 1066.68 217.159C1065.62 216.637 1065.37 216.338 1065.3 216.234C1064.92 215.639 1064.8 214.909 1064.99 214.225C1065.02 214.106 1065.17 213.745 1066.01 212.925C1066.85 212.114 1068.07 211.126 1069.87 209.666L1076.61 204.226C1078.42 202.767 1079.64 201.784 1080.61 201.138C1081.59 200.485 1081.98 200.417 1082.1 200.41C1082.81 200.375 1083.5 200.64 1084 201.142C1084.08 201.229 1084.32 201.538 1084.61 202.68C1084.9 203.809 1085.14 205.359 1085.5 207.653L1086.84 216.209C1087.2 218.504 1087.44 220.054 1087.52 221.216C1087.59 222.391 1087.46 222.758 1087.4 222.868Z" stroke="#F0000F" stroke-width="5"/>
<rect x="1323.43" y="178.508" width="24" height="24" rx="2.5" transform="rotate(160.984 1323.43 178.508)" stroke="#006BA5" stroke-width="5"/>
<rect x="1177.99" y="214.147" width="40" height="40" rx="2.5" transform="rotate(-171.493 1177.99 214.147)" stroke="white" stroke-width="5"/>
<circle cx="1215.29" cy="78.4505" r="23" transform="rotate(-164.341 1215.29 78.4505)" stroke="white" stroke-width="5"/>
<circle cx="1293.25" cy="106.014" r="15.5" transform="rotate(-164.341 1293.25 106.014)" stroke="#F0000F"/>
<path d="M1228.73 239.136C1227.48 238.931 1226.36 238.202 1225.67 237.13C1225.31 236.562 1225.12 235.765 1225.08 234.485C1225.04 233.207 1225.13 231.532 1225.26 229.252L1225.75 220.606C1225.88 218.326 1225.98 216.651 1226.16 215.386C1226.35 214.12 1226.63 213.348 1227.05 212.825C1227.86 211.838 1229.05 211.239 1230.32 211.178C1231 211.146 1231.78 211.385 1232.91 211.986C1234.04 212.587 1235.44 213.506 1237.35 214.758L1244.59 219.506C1246.5 220.758 1247.91 221.679 1248.91 222.474C1249.91 223.271 1250.44 223.893 1250.68 224.524C1251.13 225.716 1251.06 227.045 1250.47 228.179C1250.16 228.778 1249.56 229.336 1248.48 230.015C1247.39 230.692 1245.9 231.448 1243.86 232.476L1236.12 236.374C1234.08 237.402 1232.59 238.157 1231.4 238.626C1230.21 239.095 1229.4 239.245 1228.73 239.136Z" stroke="#F0000F"/>
<path d="M1218.49 174.26C1217.38 174.453 1216.24 174.172 1215.35 173.483C1214.93 173.157 1214.53 172.578 1214.08 171.431C1213.62 170.287 1213.16 168.73 1212.51 166.566L1206.74 147.147C1206.09 144.932 1205.61 143.336 1205.37 142.101C1205.12 140.861 1205.14 140.147 1205.32 139.64C1205.7 138.568 1206.52 137.709 1207.57 137.279C1208.07 137.075 1208.78 137.025 1210.03 137.215C1211.28 137.405 1212.89 137.804 1215.14 138.359L1235.07 143.294C1237.31 143.849 1238.93 144.251 1240.12 144.664C1241.31 145.079 1241.92 145.455 1242.26 145.868C1242.99 146.74 1243.32 147.883 1243.16 149.009C1243.08 149.542 1242.76 150.181 1241.96 151.162C1241.17 152.139 1240.01 153.331 1238.39 154.983L1224.23 169.467C1222.65 171.081 1221.51 172.242 1220.58 173.04C1219.63 173.841 1219.01 174.168 1218.49 174.26Z" stroke="#006BA5" stroke-width="2"/>
<line x1="1159.92" y1="83.182" x2="1152.57" y2="70.1062" stroke="#E00514" stroke-width="5" stroke-linecap="round"/>
<line x1="439.777" y1="413.447" x2="453.622" y2="419.218" stroke="#E00514" stroke-width="5" stroke-linecap="round"/>
</svg>
