<svg width="42" height="41" viewBox="0 0 42 41" fill="none" xmlns="http://www.w3.org/2000/svg">
<path d="M39.3717 29.825C39.4153 30.5319 39.1569 31.2243 38.6609 31.7298C38.5743 31.818 38.2683 32.0609 37.1296 32.3613C36.0035 32.6583 34.4565 32.9207 32.1659 33.3055L10.4743 36.9484C8.18356 37.3332 6.63538 37.5907 5.47403 37.6779C4.29986 37.766 3.93176 37.6373 3.82113 37.5822C3.18708 37.2665 2.71677 36.6965 2.52695 36.0141C2.49385 35.8951 2.43635 35.5088 2.7455 34.3727C3.0513 33.2489 3.59805 31.7781 4.4102 29.6019L12.1007 8.99401C12.9127 6.81816 13.4631 5.34918 13.9682 4.29989C14.4788 3.23919 14.7753 2.98497 14.8784 2.91658C15.469 2.52519 16.1978 2.40192 16.8838 2.57884C17.0035 2.6097 17.366 2.75367 18.1953 3.58943C19.0156 4.41613 20.0166 5.62489 21.4952 7.41636L35.4966 24.3804C36.9751 26.1718 37.972 27.3835 38.6281 28.3456C39.2915 29.3184 39.3641 29.7016 39.3717 29.825Z" stroke="#DC143C" stroke-width="8" fill="none"/>
</svg>
