<svg width="82" height="81" viewBox="0 0 82 81" fill="none" xmlns="http://www.w3.org/2000/svg">
<rect x="2.5" y="2.5" width="77" height="76" rx="7.5" fill="white" stroke="#F0000F" stroke-width="5"/>
<path d="M10 2.5H72C76.1421 2.5 79.5 5.85786 79.5 10V36.5H2.5V10C2.5 5.85787 5.85786 2.5 10 2.5Z" fill="#F0000F" stroke="#F0000F" stroke-width="5"/>
<path d="M23.1378 13.9091H26.5511L30.1562 22.7045H30.3097L33.9148 13.9091H37.3281V27H34.6435V18.4794H34.5348L31.147 26.9361H29.3189L25.9311 18.4474H25.8224V27H23.1378V13.9091ZM42.3571 27.1854C41.7306 27.1854 41.1724 27.0767 40.6824 26.8594C40.1923 26.6378 39.8045 26.3118 39.519 25.8814C39.2377 25.4467 39.0971 24.9055 39.0971 24.2578C39.0971 23.7124 39.1973 23.2543 39.3975 22.8835C39.5978 22.5128 39.8706 22.2145 40.2157 21.9886C40.5609 21.7628 40.9529 21.5923 41.3919 21.4773C41.835 21.3622 42.2995 21.2812 42.7853 21.2344C43.3564 21.1747 43.8166 21.1193 44.166 21.0682C44.5154 21.0128 44.769 20.9318 44.9267 20.8253C45.0843 20.7187 45.1632 20.5611 45.1632 20.3523V20.3139C45.1632 19.9091 45.0353 19.5959 44.7797 19.3743C44.5282 19.1527 44.1703 19.0419 43.7058 19.0419C43.2157 19.0419 42.8258 19.1506 42.536 19.3679C42.2463 19.581 42.0545 19.8494 41.9608 20.1733L39.4423 19.9688C39.5701 19.3722 39.8216 18.8565 40.1966 18.4219C40.5716 17.983 41.0552 17.6463 41.6475 17.4119C42.2441 17.1733 42.9345 17.054 43.7186 17.054C44.264 17.054 44.786 17.1179 45.2846 17.2457C45.7875 17.3736 46.2328 17.5717 46.6206 17.8402C47.0126 18.1087 47.3216 18.4538 47.5474 18.8757C47.7733 19.2933 47.8862 19.794 47.8862 20.3778V27H45.3038V25.6385H45.2271C45.0694 25.9453 44.8585 26.2159 44.5943 26.4503C44.3301 26.6804 44.0126 26.8615 43.6419 26.9936C43.2711 27.1214 42.8429 27.1854 42.3571 27.1854ZM43.1369 25.3061C43.5375 25.3061 43.8912 25.2273 44.198 25.0696C44.5048 24.9077 44.7456 24.6903 44.9203 24.4176C45.095 24.1449 45.1824 23.8359 45.1824 23.4908V22.4489C45.0971 22.5043 44.9799 22.5554 44.8308 22.6023C44.6859 22.6449 44.5218 22.6854 44.3386 22.7237C44.1554 22.7578 43.9721 22.7898 43.7889 22.8196C43.6056 22.8452 43.4395 22.8686 43.2903 22.8899C42.9707 22.9368 42.6916 23.0114 42.4529 23.1136C42.2143 23.2159 42.0289 23.3544 41.8968 23.5291C41.7647 23.6996 41.6987 23.9126 41.6987 24.1683C41.6987 24.5391 41.8329 24.8224 42.1014 25.0185C42.3741 25.2102 42.7193 25.3061 43.1369 25.3061ZM51.3283 30.6818C50.9831 30.6818 50.6593 30.6541 50.3567 30.5987C50.0584 30.5476 49.8113 30.4815 49.6152 30.4006L50.2289 28.3679C50.5485 28.4659 50.8361 28.5192 51.0918 28.5277C51.3517 28.5362 51.5755 28.4766 51.763 28.3487C51.9547 28.2209 52.1103 28.0036 52.2296 27.6967L52.3894 27.2812L48.8674 17.1818H51.731L53.7637 24.392H53.8659L55.9178 17.1818H58.8006L54.9846 28.0611C54.8013 28.5895 54.552 29.0497 54.2367 29.4418C53.9256 29.8381 53.5314 30.1428 53.0542 30.3558C52.5769 30.5732 52.0016 30.6818 51.3283 30.6818Z" fill="white"/>
<path d="M19.0611 64V62.0057L23.7209 57.6911C24.1172 57.3075 24.4496 56.9624 24.718 56.6555C24.9908 56.3487 25.1974 56.0483 25.3381 55.7543C25.4787 55.456 25.549 55.1342 25.549 54.7891C25.549 54.4055 25.4616 54.0753 25.2869 53.7983C25.1122 53.517 24.8736 53.3018 24.571 53.1527C24.2685 52.9993 23.9254 52.9226 23.5419 52.9226C23.1413 52.9226 22.7919 53.0036 22.4936 53.1655C22.1953 53.3274 21.9652 53.5597 21.8033 53.8622C21.6413 54.1648 21.5604 54.5249 21.5604 54.9425H18.9332C18.9332 54.0859 19.1271 53.3423 19.5149 52.7116C19.9027 52.081 20.446 51.593 21.1449 51.2479C21.8438 50.9027 22.6491 50.7301 23.5611 50.7301C24.4986 50.7301 25.3146 50.8963 26.0092 51.2287C26.7081 51.5568 27.2514 52.0128 27.6392 52.5966C28.027 53.1804 28.2209 53.8494 28.2209 54.6037C28.2209 55.098 28.1229 55.5859 27.9268 56.0675C27.7351 56.549 27.392 57.0838 26.8977 57.6719C26.4034 58.2557 25.7067 58.9567 24.8075 59.7749L22.8963 61.6477V61.7372H28.3935V64H19.0611ZM35.5318 64.2876C34.4324 64.2834 33.4863 64.0128 32.6937 63.4759C31.9054 62.9389 31.2981 62.1612 30.872 61.1428C30.4501 60.1243 30.2413 58.8991 30.2456 57.4673C30.2456 56.0398 30.4565 54.8232 30.8784 53.8175C31.3045 52.8118 31.9118 52.0469 32.7001 51.5227C33.4927 50.9943 34.4366 50.7301 35.5318 50.7301C36.627 50.7301 37.5687 50.9943 38.3571 51.5227C39.1497 52.0511 39.7591 52.8182 40.1852 53.8239C40.6113 54.8253 40.8223 56.0398 40.818 57.4673C40.818 58.9034 40.6049 60.1307 40.1788 61.1491C39.7569 62.1676 39.1518 62.9453 38.3635 63.4822C37.5751 64.0192 36.6312 64.2876 35.5318 64.2876ZM35.5318 61.9929C36.2818 61.9929 36.8805 61.6158 37.3279 60.8615C37.7754 60.1072 37.997 58.9759 37.9927 57.4673C37.9927 56.4744 37.8904 55.6477 37.6859 54.9872C37.4856 54.3267 37.2001 53.8303 36.8294 53.4979C36.4629 53.1655 36.0304 52.9993 35.5318 52.9993C34.786 52.9993 34.1895 53.3722 33.742 54.1179C33.2946 54.8636 33.0687 55.9801 33.0645 57.4673C33.0645 58.473 33.1646 59.3125 33.3649 59.9858C33.5694 60.6548 33.8571 61.1577 34.2278 61.4943C34.5985 61.8267 35.0332 61.9929 35.5318 61.9929ZM42.7915 64V62.0057L47.4513 57.6911C47.8477 57.3075 48.18 56.9624 48.4485 56.6555C48.7212 56.3487 48.9279 56.0483 49.0685 55.7543C49.2092 55.456 49.2795 55.1342 49.2795 54.7891C49.2795 54.4055 49.1921 54.0753 49.0174 53.7983C48.8427 53.517 48.604 53.3018 48.3015 53.1527C47.9989 52.9993 47.6559 52.9226 47.2724 52.9226C46.8718 52.9226 46.5224 53.0036 46.2241 53.1655C45.9258 53.3274 45.6957 53.5597 45.5337 53.8622C45.3718 54.1648 45.2908 54.5249 45.2908 54.9425H42.6637C42.6637 54.0859 42.8576 53.3423 43.2454 52.7116C43.6332 52.081 44.1765 51.593 44.8754 51.2479C45.5742 50.9027 46.3796 50.7301 47.2915 50.7301C48.229 50.7301 49.0451 50.8963 49.7397 51.2287C50.4386 51.5568 50.9819 52.0128 51.3697 52.5966C51.7575 53.1804 51.9514 53.8494 51.9514 54.6037C51.9514 55.098 51.8533 55.5859 51.6573 56.0675C51.4656 56.549 51.1225 57.0838 50.6282 57.6719C50.1339 58.2557 49.4371 58.9567 48.538 59.7749L46.6268 61.6477V61.7372H52.1239V64H42.7915ZM53.65 61.6989V59.5192L59.1152 50.9091H60.9945V53.9261H59.8823L56.437 59.3786V59.4808H64.2033V61.6989H53.65ZM59.9334 64V61.0341L59.9846 60.0689V50.9091H62.5797V64H59.9334Z" fill="black"/>
</svg>
