<svg width="800" height="728" viewBox="0 0 800 728" fill="none" xmlns="http://www.w3.org/2000/svg">
<path d="M282.012 182.133L266.232 183.283L274.742 190.053L260.612 215.613L277.672 221.513L281.912 218.743L305.082 192.543L282.012 182.133Z" fill="#CCCCCC" stroke="white" stroke-width="0.5"/>
<path d="M573.972 416.583L524.132 396.453L487.722 419.553L484.722 442.173L437.812 449.593L431.432 463.233L440.402 503.003L432.652 505.623L461.692 545.753L480.062 554.703L498.472 546.323L500.272 574.193L511.812 584.843L538.552 577.583L556.262 635.293L588.932 647.413L583.732 673.773L616.652 683.353L613.002 626.743L624.122 575.813L617.692 568.433L637.562 557.113L634.842 510.153L643.732 466.553L621.212 437.953L573.972 416.583Z" fill="#CCCCCC" stroke="white" stroke-width="0.5"/>
<path d="M722.442 727.093L739.932 673.403L764.232 657.793L794.242 654.863L799.232 643.413L799.192 627.473L777.682 625.003L778.472 579.053L742.412 565.073L698.892 502.513L738.652 454.943L730.522 428.683L710.552 425.753L706.802 476.123L676.182 457.083L643.732 466.553L634.842 510.153L637.562 557.113L617.692 568.433L624.122 575.813L613.002 626.743L616.652 683.353L632.762 710.053L683.242 716.503L686.662 709.313L722.442 727.093Z" fill="#CCCCCC" stroke="white" stroke-width="0.5"/>
<path d="M559.923 98.6434L547.043 79.9634L504.733 90.2934L510.392 113.783L492.312 128.413L501.543 138.873L506.302 160.163L525.692 165.413L538.223 148.483L588.533 163.613L581.192 143.693L589.452 123.513L562.082 110.673L569.822 99.9134L559.923 98.6434Z" fill="#CCCCCC" stroke="white" stroke-width="0.5"/>
<path d="M572.532 101.523L569.822 99.9131L562.082 110.673L589.452 123.513L581.192 143.693L588.532 163.613L538.222 148.483L525.692 165.413L529.252 199.803L542.312 217.433L506.552 254.263L550.462 239.283L567.182 249.803L539.522 292.723L541.762 315.593L551.962 319.663L562.562 317.193L571.792 349.803L586.962 362.073L615.362 325.573L606.152 316.523L607.382 292.443L643.302 285.933L655.042 296.433L684.122 295.813L700.812 283.873L692.892 273.933L708.072 258.883L717.392 221.633L712.242 165.733L678.052 165.693L664.642 145.533L641.502 136.073L635.302 119.213L572.532 101.523Z" fill="#CCCCCC" stroke="white" stroke-width="0.5"/>
<path d="M655.042 296.433L643.302 285.933L607.382 292.443L606.152 316.523L615.362 325.573L586.962 362.073L590.052 384.273L573.972 416.583L621.212 437.953L643.732 466.553L676.182 457.083L706.802 476.123L710.552 425.753L697.952 423.533L687.212 346.763L702.072 324.123L685.092 317.933L684.122 295.813L655.042 296.433Z" fill="#CCCCCC" stroke="white" stroke-width="0.5"/>
<path d="M175.112 214.373L161.172 202.843L160.152 177.763L138.032 172.383L130.092 180.963L84.6622 175.453L62.0322 198.233L96.0022 207.893L81.0422 220.073L87.9322 235.033L108.722 256.543L119.982 262.293L142.532 240.873L159.582 251.973L172.032 244.543L157.422 219.633L175.112 214.373Z" fill="#CCCCCC" stroke="white" stroke-width="0.5"/>
<path d="M202.042 71.6235L191.192 73.6535L197.062 78.9535L184.682 100.854L202.382 136.324L217.462 156.584L232.562 168.054L261.402 163.974L272.682 147.444L256.882 126.584L209.962 111.434L202.042 71.6235Z" fill="#CCCCCC" stroke="white" stroke-width="0.5"/>
<path d="M108.722 256.543L87.9317 235.033L88.6717 244.453L68.9017 259.273L70.3417 272.173L58.5317 277.563L64.5917 285.363L57.0117 301.193L71.3017 318.203L75.3417 299.173L118.252 310.133L140.272 297.973L153.042 282.323L165.332 278.233L164.472 269.313L148.742 266.113L159.582 251.973L142.532 240.873L119.982 262.293L108.722 256.543Z" fill="#CCCCCC" stroke="white" stroke-width="0.5"/>
<path d="M117.592 46.1932L128.122 40.8832L124.802 31.5132L104.812 47.7632L61.7516 42.4832L44.9316 80.4632L56.0316 129.833L94.8916 153.223L109.252 143.813L118.382 160.083L132.282 159.493L148.532 138.823L184.642 135.223L163.412 117.353L153.822 82.1232L133.852 81.2332L149.652 65.0532L146.052 37.0732L124.132 58.1032L107.392 58.5032L117.592 46.1932Z" fill="#CCCCCC" stroke="white" stroke-width="0.5"/>
<path d="M23.202 0.383301L15.822 19.3133L0.332031 21.4833L18.762 76.6933L8.10203 99.9633L24.462 109.463L34.222 157.673L51.142 177.783L54.512 198.813L62.032 198.233L84.662 175.453L130.092 180.963L138.032 172.383L132.282 159.493L118.382 160.083L109.252 143.813L94.892 153.223L56.032 129.833L44.932 80.4633L61.752 42.4833L33.212 7.1833L23.202 0.383301Z" fill="#CCCCCC" stroke="white" stroke-width="0.5"/>
<path d="M232.562 168.053L217.462 156.583L207.872 164.673L224.032 192.904L190.582 206.273L199.062 217.154L225.542 227.264L260.612 215.613L274.742 190.053L266.232 183.283L282.012 182.133L261.402 163.973L232.562 168.053Z" fill="#CCCCCC" stroke="white" stroke-width="0.5"/>
<path d="M202.382 136.323L184.642 135.223L148.532 138.823L132.282 159.493L138.032 172.383L160.152 177.763L161.172 202.843L175.112 214.373L199.062 217.153L190.582 206.273L224.032 192.903L207.872 164.673L217.462 156.583L202.382 136.323Z" fill="#CCCCCC" stroke="white" stroke-width="0.5"/>
<path d="M175.112 214.374L157.422 219.634L172.032 244.544L159.582 251.974L148.742 266.114L164.472 269.314L165.332 278.234L153.042 282.324L206.052 300.414L202.902 269.074L211.472 269.644L213.082 254.094L230.792 261.264L217.452 246.804L225.542 227.264L199.062 217.154L175.112 214.374Z" fill="#CCCCCC" stroke="white" stroke-width="0.5"/>
<path d="M326.902 255.803L281.342 238.423L277.562 253.753L257.532 258.643L251.252 270.873L267.082 288.603L291.642 294.563L292.892 278.873L323.022 272.643L326.902 255.803Z" fill="#CCCCCC" stroke="white" stroke-width="0.5"/>
<path d="M277.672 221.513L260.612 215.613L225.542 227.263L217.452 246.803L230.792 261.263L213.082 254.093L211.472 269.643L202.902 269.073L206.052 300.413L206.192 314.023L226.502 305.543L248.832 324.893L286.082 309.123L291.642 294.563L267.082 288.603L251.252 270.873L257.532 258.643L277.562 253.753L281.342 238.423L281.912 218.743L277.672 221.513Z" fill="#CCCCCC" stroke="white" stroke-width="0.5"/>
<path d="M163.992 3.55322L124.802 31.5132L128.122 40.8832L117.592 46.1932L107.392 58.5032L124.132 58.1032L146.052 37.0732L149.652 65.0532L133.852 81.2332L153.822 82.1232L163.412 117.353L184.642 135.223L202.382 136.323L184.682 100.853L197.062 78.9532L191.192 73.6532L165.462 49.5132L177.942 41.2732L170.152 27.1132L179.812 21.2232L163.992 3.55322Z" fill="#CCCCCC" stroke="white" stroke-width="0.5"/>
<path d="M458.562 690.073L458.122 688.773L456.802 689.293L458.562 690.073ZM437.762 688.453L437.482 687.223L435.962 687.803L437.762 688.453ZM436.642 672.183L437.522 670.393L435.832 668.973L436.642 672.183ZM416.792 660.973L415.582 658.103L410.762 659.003L416.792 660.973ZM493.232 654.943L493.422 652.353L491.722 655.073L493.232 654.943ZM400.652 652.843L399.402 651.813L398.242 652.353L400.652 652.843ZM389.142 646.603L379.492 644.523L382.542 646.773L389.142 646.603ZM513.552 644.953L514.592 642.423L511.192 645.153L513.552 644.953ZM504.932 641.783L487.772 639.583L468.152 657.903L504.932 641.783ZM517.812 635.283L516.722 632.653L515.852 634.893L517.812 635.283ZM480.062 554.703L461.692 545.753L476.532 572.623L478.472 599.003L453.842 614.733L417.082 616.423L408.772 630.943L372.082 619.613L359.962 622.403L403.012 651.003L447.632 660.883L502.952 629.953L531.392 630.943L552.252 693.783L632.762 710.053L616.652 683.353L583.732 673.773L588.932 647.413L556.262 635.293L538.552 577.583L511.812 584.843L500.272 574.193L498.472 546.323L480.062 554.703Z" fill="#CCCCCC" stroke="white" stroke-width="0.5"/>
<path d="M140.272 297.973L118.252 310.133L75.3418 299.173L71.3018 318.203L89.1818 336.753L86.7618 351.903L138.492 376.353L148.322 393.793L161.552 369.323L117.092 322.153L140.402 307.173L140.272 297.973Z" fill="#CCCCCC" stroke="white" stroke-width="0.5"/>
<path d="M153.042 282.323L140.272 297.973L140.402 307.173L117.092 322.153L161.552 369.323L171.732 349.353L223.022 359.743L226.072 359.103L248.832 324.893L226.502 305.543L206.192 314.023L206.052 300.413L153.042 282.323Z" fill="#CCCCCC" stroke="white" stroke-width="0.5"/>
<path d="M223.022 359.743L171.732 349.353L161.552 369.323L148.322 393.793L158.992 409.403L152.172 447.803L166.252 448.073L166.312 473.433L185.022 496.243L203.742 493.703L201.542 479.123L204.552 475.613L208.802 474.943L205.002 472.673L206.482 470.943L216.022 471.393L215.682 479.083L209.832 476.123L203.982 477.433L213.952 484.983L216.442 483.023L217.432 488.213L227.172 488.233L229.352 494.623L250.862 485.773L266.602 485.223L265.182 462.263L246.612 452.823L246.052 435.853L259.452 423.863L263.302 415.893L237.812 374.013L226.072 359.103L223.022 359.743Z" fill="#CCCCCC" stroke="white" stroke-width="0.5"/>
<path d="M303.173 439.593L302.612 396.723L284.193 368.093L237.812 374.013L263.302 415.893L259.453 423.863L269.673 428.603L288.573 442.393L303.173 439.593Z" fill="#CCCCCC" stroke="white" stroke-width="0.5"/>
<path d="M551.962 319.663L541.762 315.593L539.522 292.723L567.182 249.803L550.462 239.283L506.552 254.263L491.622 279.433L471.882 282.713L471.242 320.113L448.612 351.093L368.462 374.063L367.922 418.523L390.102 434.863L417.772 496.473L432.652 505.623L440.402 503.003L431.432 463.233L437.812 449.593L484.722 442.173L487.722 419.553L524.132 396.453L573.972 416.583L590.052 384.273L586.962 362.073L571.792 349.803L562.562 317.193L551.962 319.663Z" fill="#CCCCCC" stroke="white" stroke-width="0.5"/>
<path d="M336.272 210.443L305.082 192.543L281.912 218.743L281.342 238.423L326.902 255.803L326.392 220.523L359.802 232.433L375.252 222.643L374.732 207.173L348.322 199.733L336.272 210.443Z" fill="#CCCCCC" stroke="white" stroke-width="0.5"/>
<path d="M501.542 138.873L492.312 128.413L477.242 158.663L419.782 173.563L395.842 201.483L374.732 207.173L375.252 222.643L359.802 232.433L326.392 220.523L326.902 255.803L323.022 272.643L335.112 277.673L471.882 282.713L491.622 279.433L506.552 254.263L542.312 217.433L529.252 199.803L525.692 165.413L506.302 160.163L501.542 138.873Z" fill="#CCCCCC" stroke="white" stroke-width="0.5"/>
<path d="M402.572 156.413L415.072 149.333L328.002 168.503L272.682 147.443L261.402 163.973L282.012 182.133L305.082 192.543L336.272 210.443L348.322 199.733L374.732 207.173L395.842 201.483L419.782 173.563L402.572 156.413Z" fill="#CCCCCC" stroke="white" stroke-width="0.5"/>
<path d="M496.922 91.0835L473.872 90.5535L441.942 123.993L411.222 129.023L416.172 154.883L402.572 156.413L419.782 173.563L477.242 158.663L492.312 128.413L510.392 113.783L504.732 90.2935L496.922 91.0835Z" fill="#CCCCCC" stroke="white" stroke-width="0.5"/>
<path d="M350.602 422.643L337.682 412.913L317.302 420.913L326.452 432.023L316.882 458.563L316.842 468.433L296.432 463.613L297.712 481.293L273.732 488.773L304.642 518.263L372.082 619.613L408.772 630.943L417.082 616.423L453.842 614.733L478.472 599.003L476.532 572.623L461.692 545.753L432.652 505.623L417.772 496.473L390.102 434.863L367.922 418.523L350.602 422.643Z" fill="#CCCCCC" stroke="white" stroke-width="0.5"/>
<path d="M335.112 277.673L323.022 272.643L292.892 278.873L291.642 294.563L286.082 309.123L248.832 324.893L226.072 359.103L237.812 374.013L284.192 368.093L302.612 396.723L303.172 439.593L316.882 458.563L326.452 432.023L317.302 420.913L337.682 412.913L350.602 422.643L367.922 418.523L368.462 374.063L448.612 351.093L471.242 320.113L471.882 282.713L335.112 277.673Z" fill="#CCCCCC" stroke="white" stroke-width="0.5"/>
<path d="M262.312 533.493L262.652 531.123L260.522 530.633L262.312 533.493ZM304.642 518.263L273.732 488.773L266.602 485.223L250.862 485.773L275.962 522.053L275.492 536.603L287.362 540.823L282.172 546.563L306.872 593.853L350.862 607.883L359.962 622.403L372.082 619.613L304.642 518.263Z" fill="#CCCCCC" stroke="white" stroke-width="0.5"/>
<path d="M269.672 428.603L259.452 423.863L246.052 435.853L246.612 452.823L265.182 462.263L266.602 485.223L273.732 488.773L297.712 481.293L296.432 463.613L316.842 468.433L316.882 458.563L303.172 439.593L288.572 442.393L269.672 428.603Z" fill="#CCCCCC" stroke="white" stroke-width="0.5"/>
</svg>
