<svg width="613" height="392" viewBox="0 0 613 392" fill="none" xmlns="http://www.w3.org/2000/svg">
<path d="M337.613 138.617L340.863 136.047L342.653 138.557L342.563 141.167L339.903 138.817L337.613 138.617ZM306.503 41.0371L310.703 38.9671L311.823 40.2071L314.363 39.8671L316.143 40.8671L316.253 44.2171L320.203 47.6471L327.803 48.8071L329.913 46.5771L332.743 48.1671L332.293 52.5871L329.243 56.6471L327.773 56.4871L327.243 59.1571L325.043 59.7171L324.513 61.3471L325.313 65.5071L326.693 65.5871L326.863 67.4171L325.653 68.3771L328.593 71.4971L327.643 72.5271L328.133 74.5371L326.703 75.0771L328.413 76.0071L328.713 77.9171L326.793 81.6971L329.293 83.6671L329.613 86.2071L331.133 87.6571L330.663 92.3871L332.323 94.2771L331.943 96.4371L334.893 96.5771L337.533 94.9671L333.993 101.497L329.773 104.037L328.573 103.677L331.273 111.667L329.343 116.397L330.783 122.357L330.283 125.957L332.093 128.547L331.663 133.277L329.163 133.697L324.883 132.197L319.133 118.327L318.193 112.567L316.063 109.837L316.493 107.357L311.133 104.347L309.933 104.447L308.803 107.207L306.873 107.027L305.783 111.207L303.733 113.147L303.693 116.477L301.173 117.167L300.013 117.307L297.113 114.057L299.783 113.547L299.443 111.107L293.113 113.267L290.803 112.677L289.513 109.647L288.173 109.057L285.933 110.657L283.813 110.517L284.403 112.397L279.993 113.467L278.253 112.757L278.343 109.767L275.453 105.387L274.143 106.517L269.393 106.737L270.873 110.937L267.113 114.427L264.013 112.747L256.543 114.947L253.423 113.737L252.803 108.327L254.733 106.837L257.513 100.297L261.143 99.4271L263.613 93.1571L265.323 94.9271L269.083 95.2471L269.353 98.2871L276.873 94.3371L277.613 90.3271L279.773 87.9871L279.703 82.6071L277.993 82.5071L277.343 79.8471L271.083 77.1671L273.783 75.9971L274.243 77.1071L274.483 75.7371L272.823 70.0071L271.823 69.1871L270.243 70.5971L269.483 69.2071L268.143 69.1871L268.803 64.7271L263.443 64.7871L261.813 60.6071L259.403 59.2571L259.433 57.2471L257.853 57.9671L256.543 54.9971L253.643 55.1171L253.223 58.8971L250.163 62.3571L247.813 63.1371L247.923 58.0571L241.273 56.2671L241.033 55.1671L237.643 54.0071L248.533 50.5371L252.043 44.4771L254.673 45.6371L261.433 44.5971L263.803 47.7671L264.223 51.9771L268.423 53.2771L270.503 50.4871L278.843 51.9271L285.183 49.1571L288.223 50.4771L290.663 45.7971L294.323 45.2571L295.993 42.9071L298.283 43.1671L303.203 38.0371L305.473 38.5171L306.503 41.0371Z" fill="#CCCCCC" stroke="white" stroke-width="0.5"/>
<path d="M457.162 111.097L453.482 103.147L454.142 99.7571L452.982 97.2971L457.812 92.6171L457.612 91.2071L460.432 90.0371L458.462 85.0572L462.322 84.3471L462.352 85.5172L464.482 85.5971L466.772 87.8372L469.212 87.3772L470.262 90.2571L474.002 92.2672L479.012 92.0872L476.992 103.867L473.432 108.667L470.222 111.327L462.762 114.697L457.162 111.097ZM479.842 82.5671L480.072 81.0172L482.972 79.3871L481.772 78.7071L482.012 77.1972L484.112 75.1871L486.282 76.3171L487.442 73.8271L489.222 74.7771L494.562 74.0172L490.612 76.3471L492.782 78.6771L489.392 79.3171L484.752 83.0572L484.402 81.5271L479.842 82.5671Z" fill="#CCCCCC" stroke="white" stroke-width="0.5"/>
<path d="M457.163 111.097L454.583 112.327L452.753 109.787L451.283 110.127L448.143 107.707L445.883 108.897L443.183 108.677L438.853 106.297L441.353 103.187L439.433 97.4573L442.633 95.1673L441.143 93.0673L438.943 93.7473L438.073 92.1773L439.093 90.4873L437.553 91.0273L436.933 89.1973L439.833 88.6973L442.223 82.2473L446.973 81.4073L451.833 82.6373L461.213 80.0973L464.203 81.3873L466.603 81.0173L469.563 78.8873L470.043 74.7273L472.393 75.3273L482.913 70.8173L482.273 69.2373L483.263 67.9473L491.573 69.9373L496.133 72.7073L494.573 74.0373L489.233 74.7873L487.453 73.8373L486.293 76.3173L484.113 75.1873L482.013 77.1973L481.773 78.7073L482.973 79.3873L480.073 81.0173L479.843 82.5673L478.503 87.6273L479.003 92.0773L473.993 92.2573L470.263 90.2473L469.213 87.3673L466.763 87.8273L464.473 85.5873L462.343 85.5073L462.313 84.3273L458.453 85.0473L460.423 90.0273L457.603 91.1973L457.813 92.6073L452.983 97.2973L454.143 99.7573L453.473 103.147L457.163 111.097Z" fill="#CCCCCC" stroke="white" stroke-width="0.5"/>
<path d="M153.593 180.057L155.283 180.687L153.513 182.297L152.503 181.507L153.593 180.057ZM159.453 176.867L159.953 179.267L157.433 180.667L156.813 177.577L158.713 177.127L159.453 176.867ZM216.523 97.1171L213.083 102.767L206.713 104.767L204.243 108.557L197.483 110.877L197.323 113.477L190.033 117.757L187.103 118.097L188.993 123.227L190.453 122.417L192.223 124.117L194.013 128.137L192.843 128.377L192.993 129.427L196.853 128.997L199.483 126.267V124.747L201.533 125.357L201.753 123.617L205.373 123.377L205.763 126.567L208.243 127.417L205.343 130.777L201.973 130.287L200.513 132.677L198.653 133.287L198.123 134.317L200.443 136.707L195.753 137.757L193.293 136.257L191.203 137.087L193.833 142.917L199.653 141.217L200.783 146.377L205.303 144.247L203.483 139.707L210.123 136.107L212.623 131.757L211.803 129.227L214.903 129.307L217.133 127.807L219.423 129.307L220.263 131.797L224.363 130.077L228.333 131.517L230.193 127.657L232.053 127.637L231.793 122.417L228.673 121.087L227.593 115.647L224.733 115.727L221.603 112.357L221.333 108.357L219.503 106.417L229.323 104.967L233.603 102.787L240.103 109.667L243.333 109.767L245.753 108.007L247.263 110.347L249.513 107.907L251.173 109.317L252.843 108.327L253.463 113.737L258.713 124.567L259.613 130.737L261.303 133.227L260.863 135.557L258.343 137.497L260.183 143.487L258.523 151.717L261.793 155.367L262.883 159.647L265.983 158.837L267.103 160.117L270.143 160.177L269.763 164.657L268.913 167.217L267.043 168.657L266.733 171.177L264.613 174.137L261.493 174.197L258.293 177.507L260.353 179.887L256.863 184.257L257.013 186.307L258.623 187.787L258.693 191.567L269.003 199.367L272.753 204.647L274.263 205.297L279.203 202.527L282.873 202.817L288.333 202.957L290.103 205.627L292.753 206.257L295.973 209.237L301.853 206.297L307.603 207.987L308.593 206.197L311.283 207.397L312.553 209.437L314.443 209.637L321.663 204.217L326.033 202.827L329.593 205.907L329.793 207.207L332.223 205.377L335.423 205.827L336.693 206.117L336.763 207.437L335.493 209.557L335.793 212.697L337.023 214.027L336.713 217.227L337.673 217.997L337.323 222.177L334.033 222.647L330.173 221.407V222.347L329.943 224.837L331.683 229.167L330.123 228.897L329.503 230.717L326.483 233.007L325.043 239.877L325.823 242.557L323.593 245.687L318.913 247.687L317.323 250.147L311.103 253.357L300.673 255.217L299.863 253.047L293.493 251.957L291.803 250.077L277.973 246.867L271.263 251.387L272.583 254.377L272.123 256.137L268.423 257.697L265.983 260.727L259.613 263.617L255.363 263.267L237.923 275.647L225.833 269.737L223.473 271.627L221.543 276.407L219.023 275.357L213.223 276.837L212.553 278.627L216.193 280.827L213.983 283.027L207.073 284.467L205.943 281.637L203.583 283.297L200.423 281.407L195.133 283.377L189.023 288.427L183.803 289.657L182.873 288.297L183.143 283.657L181.393 285.527L176.643 286.877L176.693 290.777L175.273 292.437L171.123 292.557L170.773 287.137L172.163 286.337L170.313 286.107L169.373 282.927L167.353 282.907L169.523 275.617L167.213 272.047L167.523 270.797L171.143 270.617L172.573 268.217L171.483 261.797L173.103 261.507L172.633 260.197L174.153 259.177L174.873 255.757L173.243 248.607L175.823 247.397L179.263 242.567L182.033 243.507L184.573 241.137L183.413 234.967L183.563 232.557L185.733 231.437L184.643 228.867L187.953 228.747L189.473 231.937L192.103 228.667L191.143 228.587L192.583 221.967L190.183 220.237L187.953 220.297L188.453 217.627L182.843 216.687L181.343 214.647L182.303 208.547L180.563 205.777L182.443 203.757L182.003 201.817L184.513 197.337L184.623 196.397L186.063 194.117L182.123 190.247L183.973 188.207L185.903 188.997L185.253 190.317L188.683 189.787L189.833 188.157L188.753 183.157L185.273 182.077L179.023 182.867L176.473 181.297L173.233 181.317L172.433 180.097L170.783 181.257L169.593 180.317L166.773 180.787L169.393 179.037L169.033 176.557L170.053 175.217L168.763 173.367L169.833 169.647L167.733 168.207L170.273 167.617L173.173 164.127L170.553 159.747L162.393 163.847L154.033 165.777L148.073 165.487L146.863 165.137L144.723 159.857L145.853 154.927L153.033 149.437L151.713 146.077L153.053 144.157L151.653 142.087L146.793 139.557L145.233 140.627L144.533 138.967L146.743 136.457L145.393 135.927L132.863 139.547L131.893 138.757L123.383 144.207L126.343 135.077L122.743 128.277L124.103 126.577L125.693 131.387L131.923 127.627L133.463 124.677L134.973 124.067L135.433 125.337L137.293 125.237L138.653 126.667L140.863 122.887L144.583 122.447L147.743 116.307L149.283 115.497L149.433 113.197L152.053 112.227L153.473 114.387L155.263 113.157L162.283 112.187L160.653 109.847L161.553 107.847L164.073 106.837L163.443 103.027L169.073 102.727L169.703 104.017L179.553 104.847L183.943 104.257L186.883 100.687L192.683 98.7471L208.073 101.327L216.523 97.1171ZM170.673 174.157L170.723 175.947L172.813 174.927L172.933 173.177L171.693 173.607L170.673 174.157ZM234.483 128.087L232.863 128.677L232.333 130.597L234.303 130.637L234.973 128.857L234.483 128.087ZM216.523 97.1171L212.473 97.0971L215.743 92.5172L218.393 95.6572L216.523 97.1171ZM185.493 73.5771L192.603 75.4671L191.863 78.7871L189.413 78.6471L187.163 75.8271L185.163 75.2471L185.493 73.5771Z" fill="#CCCCCC"/>
<path d="M216.523 97.1171L213.083 102.767L206.713 104.767L204.243 108.557L197.483 110.877L197.323 113.477L190.033 117.757L187.103 118.097L188.993 123.227L190.453 122.417L192.223 124.117L194.013 128.137L192.843 128.377L192.993 129.427L196.853 128.997L199.483 126.267V124.747L201.533 125.357L201.753 123.617L205.373 123.377L205.763 126.567L208.243 127.417L205.343 130.777L201.973 130.287L200.513 132.677L198.653 133.287L198.123 134.317L200.443 136.707L195.753 137.757L193.293 136.257L191.203 137.087L193.833 142.917L199.653 141.217L200.783 146.377L205.303 144.247L203.483 139.707L210.123 136.107L212.623 131.757L211.803 129.227L214.903 129.307L217.133 127.807L219.423 129.307L220.263 131.797L224.363 130.077L228.333 131.517L230.193 127.657L232.053 127.637L231.793 122.417L228.673 121.087L227.593 115.647L224.733 115.727L221.603 112.357L221.333 108.357L219.503 106.417L229.323 104.967L233.603 102.787L240.103 109.667L243.333 109.767L245.753 108.007L247.263 110.347L249.513 107.907L251.173 109.317L252.843 108.327L253.463 113.737L258.713 124.567L259.613 130.737L261.303 133.227L260.863 135.557L258.343 137.497L260.183 143.487L258.523 151.717L261.793 155.367L262.883 159.647L265.983 158.837L267.103 160.117L270.143 160.177L269.763 164.657L268.913 167.217L267.043 168.657L266.733 171.177L264.613 174.137L261.493 174.197L258.293 177.507L260.353 179.887L256.863 184.257L257.013 186.307L258.623 187.787L258.693 191.567L269.003 199.367L272.753 204.647L274.263 205.297L279.203 202.527L282.873 202.817L288.333 202.957L290.103 205.627L292.753 206.257L295.973 209.237L301.853 206.297L307.603 207.987L308.593 206.197L311.283 207.397L312.553 209.437L314.443 209.637L321.663 204.217L326.033 202.827L329.593 205.907L329.793 207.207L332.223 205.377L335.423 205.827L336.693 206.117L336.763 207.437L335.493 209.557L335.793 212.697L337.023 214.027L336.713 217.227L337.673 217.997L337.323 222.177L334.033 222.647L330.173 221.407V222.347L329.943 224.837L331.683 229.167L330.123 228.897L329.503 230.717L326.483 233.007L325.043 239.877L325.823 242.557L323.593 245.687L318.913 247.687L317.323 250.147L311.103 253.357L300.673 255.217L299.863 253.047L293.493 251.957L291.803 250.077L277.973 246.867L271.263 251.387L272.583 254.377L272.123 256.137L268.423 257.697L265.983 260.727L259.613 263.617L255.363 263.267L237.923 275.647L225.833 269.737L223.473 271.627L221.543 276.407L219.023 275.357L213.223 276.837L212.553 278.627L216.193 280.827L213.983 283.027L207.073 284.467L205.943 281.637L203.583 283.297L200.423 281.407L195.133 283.377L189.023 288.427L183.803 289.657L182.873 288.297L183.143 283.657L181.393 285.527L176.643 286.877L176.693 290.777L175.273 292.437L171.123 292.557L170.773 287.137L172.163 286.337L170.313 286.107L169.373 282.927L167.353 282.907L169.523 275.617L167.213 272.047L167.523 270.797L171.143 270.617L172.573 268.217L171.483 261.797L173.103 261.507L172.633 260.197L174.153 259.177L174.873 255.757L173.243 248.607L175.823 247.397L179.263 242.567L182.033 243.507L184.573 241.137L183.413 234.967L183.563 232.557L185.733 231.437L184.643 228.867L187.953 228.747L189.473 231.937L192.103 228.667L191.143 228.587L192.583 221.967L190.183 220.237L187.953 220.297L188.453 217.627L182.843 216.687L181.343 214.647L182.303 208.547L180.563 205.777L182.443 203.757L182.003 201.817L184.513 197.337L184.623 196.397L186.063 194.117L182.123 190.247L183.973 188.207L185.903 188.997L185.253 190.317L188.683 189.787L189.833 188.157L188.753 183.157L185.273 182.077L179.023 182.867L176.473 181.297L173.233 181.317L172.433 180.097L170.783 181.257L169.593 180.317L166.773 180.787L169.393 179.037L169.033 176.557L170.053 175.217L168.763 173.367L169.833 169.647L167.733 168.207L170.273 167.617L173.173 164.127L170.553 159.747L162.393 163.847L154.033 165.777L148.073 165.487L146.863 165.137L144.723 159.857L145.853 154.927L153.033 149.437L151.713 146.077L153.053 144.157L151.653 142.087L146.793 139.557L145.233 140.627L144.533 138.967L146.743 136.457L145.393 135.927L132.863 139.547L131.893 138.757L123.383 144.207L126.343 135.077L122.743 128.277L124.103 126.577L125.693 131.387L131.923 127.627L133.463 124.677L134.973 124.067L135.433 125.337L137.293 125.237L138.653 126.667L140.863 122.887L144.583 122.447L147.743 116.307L149.283 115.497L149.433 113.197L152.053 112.227L153.473 114.387L155.263 113.157L162.283 112.187L160.653 109.847L161.553 107.847L164.073 106.837L163.443 103.027L169.073 102.727L169.703 104.017L179.553 104.847L183.943 104.257L186.883 100.687L192.683 98.7471L208.073 101.327L216.523 97.1171ZM216.523 97.1171L212.473 97.0971L215.743 92.5172L218.393 95.6572L216.523 97.1171ZM153.593 180.057L155.283 180.687L153.513 182.297L152.503 181.507L153.593 180.057ZM159.453 176.867L159.953 179.267L157.433 180.667L156.813 177.577L158.713 177.127L159.453 176.867ZM170.673 174.157L170.723 175.947L172.813 174.927L172.933 173.177L171.693 173.607L170.673 174.157ZM234.483 128.087L232.863 128.677L232.333 130.597L234.303 130.637L234.973 128.857L234.483 128.087ZM185.493 73.5771L192.603 75.4671L191.863 78.7871L189.413 78.6471L187.163 75.8271L185.163 75.2471L185.493 73.5771Z" stroke="white" stroke-width="0.5"/>
<path d="M269.053 73.0972L270.273 70.5372L269.523 69.1472L268.183 69.1172L268.843 64.6672L263.493 64.7272L261.863 60.5472L259.443 59.1872L259.473 57.1772L257.893 57.8972L256.583 54.9272L253.683 55.0472L253.263 58.8272L250.203 62.2972L247.853 63.0772L247.963 57.9972L241.313 56.2072L241.073 55.1072L237.683 53.9472L235.063 55.4472L232.323 55.2872L226.803 49.6272L224.613 50.1072L224.893 53.8772L221.263 57.9572L220.053 53.3972L218.123 53.0772L216.273 48.9272L208.513 54.0672L208.863 56.2472L211.173 54.9672L212.723 56.0872L211.673 59.0072L209.083 58.9272L208.293 57.8372L209.873 61.4772L213.063 62.2572L213.703 63.5472L212.443 66.9772L212.853 69.4772L207.423 70.0173L202.993 71.8272L201.003 69.5173L199.093 70.0972L198.003 72.6472L200.233 72.5672L201.973 74.5372L202.683 76.1072L201.863 78.3672L197.833 79.5072L193.013 78.9272L193.603 81.0372L197.083 82.8773L196.713 85.5872L199.963 85.7772L200.953 81.3272L205.523 81.4473L205.833 83.6572L209.003 84.7072L211.253 83.9572L212.893 80.9972L212.153 79.3073L219.523 78.6273L217.943 77.3172L217.913 74.2572L219.833 75.8272L224.303 75.0072L225.433 68.9672L222.773 67.6072L223.183 63.7872L227.673 65.1872L229.753 64.2472L228.773 63.3672L229.533 62.5572L231.153 62.3772L231.653 64.6672L235.843 65.7972L236.953 67.5072L235.563 70.7172L233.853 71.6472L233.023 77.7372L230.613 79.5472L226.623 79.5272L226.703 85.0272L227.823 85.4672L228.133 88.1072L235.643 87.0672L239.543 87.8472L241.393 91.5173L245.023 93.7673L248.453 93.0672L249.713 89.1772L253.053 88.6572L254.573 86.6372L259.813 84.8272L258.583 82.4072L260.433 80.3972L263.893 81.8472L271.113 77.0972L269.053 73.0972Z" fill="#CCCCCC" stroke="white" stroke-width="0.5"/>
<path d="M232.692 43.6672L231.822 44.7472L234.022 47.4772L233.712 48.8072L233.272 47.9772L232.542 49.0872L226.802 49.6272L224.612 50.1072L224.892 53.8672L221.262 57.9572L220.052 53.3972L218.122 53.0772L216.272 48.9272L217.552 46.5372L219.872 46.8772L220.762 43.8672L224.632 46.5172L228.502 42.9472L232.072 43.6872L234.582 41.8872L232.692 43.6672Z" fill="#CCCCCC" stroke="white" stroke-width="0.5"/>
<path d="M110.783 209.837L111.053 210.127L112.433 210.477L111.203 214.677L110.393 215.677L109.193 216.367L107.343 213.577L110.623 209.707L110.783 209.837ZM121.093 205.227L121.453 205.267L121.923 206.487L122.513 207.507L125.373 210.197L123.363 214.317L122.913 214.907L118.113 212.887L115.593 214.497L112.743 214.357L113.393 212.807L115.713 212.537L116.533 212.317L120.863 205.207L121.093 205.227ZM123.203 178.757L127.263 183.917L130.623 186.277L127.003 188.127L129.583 187.357L131.853 189.957L128.263 195.067L129.203 197.877L128.433 199.197L129.373 199.687L130.503 198.177L131.973 199.237L129.263 204.287L129.033 203.477L124.823 204.887L122.233 202.587L117.623 205.517L114.883 203.047L113.983 203.557L111.693 201.557L111.193 202.347L112.193 199.617L111.383 200.107L106.483 194.797L111.613 189.807L123.203 178.757ZM171.693 173.597L172.933 173.167L172.813 174.917L170.723 175.937L170.673 174.147L171.693 173.597ZM147.963 165.387L153.923 165.687L162.283 163.757L170.443 159.657L173.063 164.037L170.163 167.527L167.623 168.117L169.723 169.557L168.653 173.277L169.953 175.127L168.923 176.467L169.283 178.947L166.663 180.697L169.483 180.227L170.673 181.167L172.323 180.007L173.123 181.227L176.363 181.207L178.913 182.777L185.163 181.987L188.643 183.067L189.723 188.067L188.573 189.697L185.143 190.227L185.793 188.907L183.863 188.117L182.013 190.167L185.953 194.037L184.513 196.317L184.403 197.257L181.893 201.737L182.343 203.677L180.463 205.697L182.203 208.467L181.243 214.567L182.743 216.607L188.353 217.547L187.853 220.217L190.083 220.157L192.483 221.887L191.043 228.507L192.003 228.587L189.373 231.857L187.853 228.667L184.543 228.787L185.633 231.357L183.463 232.477L183.313 234.887L184.473 241.057L181.933 243.427L179.163 242.487L175.723 247.317L173.143 248.527L169.323 252.707L167.203 249.967L163.223 253.407L161.143 253.467L157.783 259.427L154.693 261.637L149.373 261.537L144.033 266.727L143.603 269.327L138.933 271.217L140.043 269.167L138.333 266.867L138.573 263.877L137.323 260.697L134.963 258.667L132.443 258.787L129.163 256.457L127.083 257.457L127.303 254.937L122.623 260.197H120.623L115.673 254.007L117.603 250.447L118.313 251.597L121.663 250.877L122.473 252.987L126.833 247.237L127.963 246.967L127.423 245.107L125.563 246.827L124.203 246.197L123.073 243.697L122.763 243.467L120.513 242.467L118.703 244.017L116.183 242.037L116.043 243.507L113.573 244.077L114.763 237.677L114.103 229.767L116.773 230.017L118.793 227.177L121.483 228.567L123.403 227.567L123.933 225.037L122.763 223.547L126.633 220.667L127.133 218.687L132.473 213.487L133.253 211.307L131.863 209.327L130.443 209.897L128.853 208.657L129.663 207.577L130.463 208.207L133.473 203.457L135.473 202.747L136.793 199.817L135.393 197.417L136.393 194.917L139.263 196.037L140.293 193.857L139.013 192.657L139.943 190.557L138.273 191.327L137.773 189.887L139.783 185.897L138.633 184.227L137.703 183.147L135.643 184.307L136.603 187.317L132.973 182.597L131.223 182.067L131.893 180.767L127.363 175.627L131.773 170.267L136.563 175.817L139.503 176.797L138.763 178.847L142.653 182.807L140.443 184.837L141.203 185.737L142.443 185.977L143.533 184.497L146.133 185.977L145.323 187.357L146.623 188.557L145.303 190.467L146.193 191.357L150.833 186.147L149.603 183.927L152.513 181.527L153.523 182.317L155.293 180.707L153.603 180.077L149.073 173.027L149.873 166.777L147.963 165.387ZM156.813 177.577L157.433 180.667L159.953 179.267L159.453 176.867L158.713 177.127L156.813 177.577Z" fill="#CCCCCC" stroke="white" stroke-width="0.5"/>
<path d="M23.1427 294.727L25.6127 297.457L33.1327 301.257L36.0027 295.907L39.7027 297.547L40.3127 300.097L38.3127 302.647L41.4327 307.687L43.8527 307.667L46.1727 305.277L46.3327 306.987L48.0227 306.777L48.0527 309.107L46.1127 312.777L39.7327 316.687L37.5827 316.527L31.5227 321.537L31.7227 324.007L23.5727 329.367L19.0427 328.807L18.7427 327.057L13.2627 327.017L11.1427 330.297L10.0727 329.147L5.4227 328.387L0.512695 331.547L3.9027 322.847L4.5527 323.567L5.5227 321.237L1.4727 318.307L3.5527 314.397L5.1727 314.727L4.9427 313.347L6.2427 313.847L10.7227 310.117L12.5527 311.457L14.4727 308.797L15.9027 309.457L17.8727 308.367L20.2327 310.137L23.0227 307.707L20.0127 301.077L22.4427 299.147L23.1427 294.727ZM30.4527 288.587L30.8027 289.737L28.9727 289.877L29.7927 288.687L29.8427 288.377L30.1527 288.317L30.4527 288.587ZM37.6727 292.267L32.8527 289.967L29.4227 286.807L30.7327 285.537L38.8927 289.727L37.6727 292.267Z" fill="#CCCCCC" stroke="white" stroke-width="0.5"/>
<path d="M411.923 126.617L420.353 135.417L429.373 135.127L436.753 136.487L436.663 147.647L434.763 150.527L429.963 153.277L435.583 155.837L439.313 153.907L443.723 157.477L444.853 161.637L442.903 171.437L444.813 173.937L444.563 177.367L441.673 179.367L438.463 184.017L436.303 185.117L431.673 184.647L432.183 185.727L429.973 188.147L426.103 190.447L423.813 186.217L419.373 185.587L417.203 187.277L417.243 190.487L412.153 198.117L401.303 200.987L399.643 200.477L399.363 197.997L394.453 197.707L395.003 194.777L393.753 191.977L405.183 185.157L404.693 180.357L402.293 176.597L406.163 175.057L405.083 172.927L407.123 168.697L403.693 167.197L401.883 164.187L403.113 163.137L400.243 160.597L399.043 157.517L396.693 156.277L398.113 155.567L398.023 153.377H400.743L404.263 151.187L407.823 144.057L404.993 142.807L407.253 140.437L406.793 134.077L411.923 126.617Z" fill="#CCCCCC" stroke="white" stroke-width="0.5"/>
<path d="M485.803 149.697L486.603 151.217L492.633 148.677L496.583 150.767L498.123 149.167L502.913 148.557L504.113 149.997L506.713 150.337L508.093 152.307L512.553 153.687L516.763 153.377L524.033 158.387L527.253 156.377L529.763 156.867L528.743 158.977L531.093 160.907L531.553 163.037L528.683 168.107L529.733 169.247L529.403 173.717L537.783 178.087L542.963 177.557L544.743 180.257L548.553 180.417L553.043 185.457L553.493 188.207L557.823 188.347L560.373 192.257L562.693 190.877L568.883 190.427L572.253 187.267L577.253 187.297L577.743 183.697L576.533 181.277L578.743 174.387L586.123 176.677L588.663 175.587L587.573 171.197L590.173 169.957L592.853 162.837L596.173 162.627L598.043 160.787L599.783 161.417L603.613 165.547V169.087L607.443 169.977L612.033 172.947L610.193 182.067L608.773 183.527L609.523 190.707L607.613 194.577L607.593 197.487L605.443 201.177L602.733 202.127L605.403 205.757L605.943 208.817L600.183 213.397L602.383 216.377L602.163 218.007L598.123 223.037L600.323 232.647L606.333 231.817L612.313 237.207L610.003 250.647L608.293 251.157L607.263 252.997L602.333 249.087L599.443 250.357L593.583 248.047L591.843 250.707L590.163 249.067L588.013 249.847L585.953 249.157L584.683 245.077L582.163 243.837L580.203 244.957L579.203 244.017L578.543 241.117L580.943 237.307L578.303 232.687L574.923 235.917L571.483 234.227L563.513 238.307L559.773 237.347L559.563 243.017L556.913 244.347L557.013 246.717L551.993 251.217L553.323 255.127L551.713 257.487L552.493 259.127L551.733 263.037L553.233 265.787L551.353 269.697L553.693 270.687L554.313 273.187L556.373 272.997L556.913 274.337L559.293 274.397L563.473 272.407L565.313 273.047L566.073 276.157L567.573 275.357L568.353 276.367L567.943 280.617L564.973 281.167L563.323 282.797L563.393 285.977L560.543 287.787L560.193 291.747L561.703 295.327L566.943 299.607L569.803 306.497L564.163 312.407L558.263 311.967L555.483 313.987L552.103 311.637L554.153 307.897L553.453 304.807L546.093 301.347L545.203 299.907L546.193 295.347L543.453 293.597L545.493 287.947L541.183 285.547L540.083 282.747L536.933 283.577L535.893 285.177L533.363 282.277L528.763 285.647L523.993 285.877L515.933 291.157L511.613 288.007L510.383 288.277L508.793 289.697L507.833 293.377L508.863 295.227L507.253 299.297L503.913 299.227L501.943 297.547L496.303 300.737L492.833 299.027L489.483 298.947L486.113 296.637L484.833 297.587L480.883 292.777L478.273 284.927L473.363 283.427L474.043 279.687L472.243 274.417L473.623 263.137L471.043 261.587L472.863 260.907L473.443 257.037L469.683 258.957L466.373 265.287L461.423 261.827L460.573 259.877L461.393 258.207L459.803 257.117L448.313 259.657L447.743 267.317L444.343 269.067L444.223 270.317L444.953 272.877L448.593 275.797L448.193 279.857L449.123 281.227L447.893 284.307L450.743 287.477L450.203 291.177L451.033 292.877L448.953 295.527L449.203 298.447L444.873 304.377L444.373 310.777L440.583 311.047L440.323 314.377L437.913 316.257L437.003 321.287L435.183 323.447L432.743 323.427L429.583 321.447L426.843 317.167L422.883 314.797L421.493 305.717L418.403 299.887L421.283 295.597L419.793 293.027L420.143 291.047L420.683 289.647L423.063 288.627L424.003 283.917L423.233 277.637L425.023 276.407L423.173 272.287L423.943 266.827L422.523 263.897L417.753 263.117L414.233 257.017L413.763 249.537L416.893 241.967L415.623 239.477L411.683 237.227L405.943 238.927L404.703 233.177L403.213 235.837L400.663 234.917L398.383 236.517L399.743 240.127L398.983 241.727L390.083 246.477L388.433 246.757L388.013 245.037L384.063 246.447L377.533 244.117L375.863 244.817L374.313 243.897L372.703 245.037L370.273 243.057L367.673 243.447L367.663 236.187L364.003 232.627L364.403 229.627L367.633 226.647L367.103 221.217L369.983 219.217L371.733 220.007L376.863 216.377L377.053 212.787L379.233 211.137L381.613 214.337L385.753 212.607L386.543 207.607L388.623 206.797L387.843 201.887L390.133 201.517L394.453 197.707L399.363 197.997L399.643 200.477L401.303 200.987L412.153 198.117L417.243 190.487L417.203 187.277L419.373 185.587L423.813 186.217L426.103 190.447L429.973 188.147L432.183 185.727L431.673 184.647L436.303 185.117L438.463 184.017L441.673 179.367L444.563 177.367L447.013 179.937L452.653 179.347L453.773 180.337L466.313 182.007L471.593 185.807L472.323 183.247L474.213 182.697L474.103 180.417L476.853 177.977L475.633 177.327L475.793 175.357L479.113 169.757L480.983 169.167L481.103 166.307L484.603 165.247L475.303 150.417L476.133 149.717L476.683 151.127L477.613 149.687L483.803 148.027L485.803 149.697Z" fill="#CCCCCC" stroke="white" stroke-width="0.5"/>
<path d="M146.023 62.0971L151.403 64.2671L156.743 62.7971L158.473 61.1771L164.233 64.0471L168.393 63.0771L166.343 65.2971L164.103 73.0571L167.673 74.6871L172.503 73.9771L173.973 77.5571L179.153 74.9671L185.493 73.5771L185.163 75.2471L187.153 75.8271L189.413 78.6471L191.863 78.7871L193.013 78.9271L193.603 81.0371L197.083 82.8771L196.703 85.5871L199.963 85.7771L203.773 87.6271L211.943 87.2671L211.683 88.7171L214.013 89.6371L213.923 92.0771L215.743 92.5071L212.483 97.0971L216.523 97.1171L207.933 101.207L192.543 98.6271L186.733 100.567L183.793 104.137L179.413 104.737L169.563 103.897L168.933 102.607L163.303 102.907L163.933 106.717L161.413 107.727L160.513 109.727L162.143 112.067L155.123 113.037L153.333 114.267L151.913 112.107L149.303 113.077L149.153 115.377L147.613 116.187L144.453 122.327L140.733 122.757L138.523 126.537L137.153 125.117L135.293 125.217L134.833 123.947L133.323 124.557L131.783 127.507L125.553 131.267L123.963 126.457L122.603 128.157L122.113 128.337L119.743 127.117L124.123 124.597L124.983 121.537L135.123 113.077L133.473 104.237L140.673 102.727L143.273 99.0371L142.523 96.7771L147.353 96.3471L149.443 93.1071L147.953 92.1971L147.733 89.2971L143.353 87.2071L140.363 89.0971L130.773 90.5871L128.143 89.8271L124.813 91.1771L125.563 86.9571L129.483 84.1071L129.493 80.9771L132.713 80.6571L133.053 75.2671L135.633 75.1271L137.333 72.6071L141.403 71.1271L138.853 63.0971L143.893 61.0371L146.023 62.0971Z" fill="#CCCCCC" stroke="white" stroke-width="0.5"/>
<path d="M253.453 113.687L256.573 114.897L264.043 112.697L267.143 114.387L270.913 110.897L269.423 106.697L274.173 106.477L275.483 105.347L278.373 109.727L278.273 112.717L280.013 113.437L284.433 112.367L283.833 110.477L285.953 110.617L288.193 109.017L289.533 109.607L290.823 112.637L293.133 113.237L299.463 111.077L299.793 113.517L297.123 114.027L300.023 117.277L301.183 117.137L303.713 116.447L303.753 113.117L305.803 111.177L306.893 106.997L308.823 107.167L309.953 104.417L311.153 104.317L316.513 107.327L316.083 109.807L318.213 112.537L319.153 118.307L324.903 132.177L329.183 133.677L331.673 133.267L332.473 136.877L336.453 135.477L337.103 138.387L332.523 141.107L328.613 148.067L330.083 149.187L335.463 148.397L345.343 156.727L344.583 159.927L339.343 161.477L339.633 159.097L333.723 157.517L333.873 161.107L328.273 161.307L327.803 157.417L325.743 157.027L321.273 162.997L319.133 161.047L315.203 162.017L312.103 161.327L309.393 163.667L307.093 162.427L305.703 164.927L307.203 166.487L303.453 167.597L301.483 166.747L296.623 169.307L298.353 173.287L294.443 176.257L291.253 182.267L290.863 179.177L289.013 178.367L285.873 181.297L285.303 188.087L281.983 193.147L284.913 198.707L282.833 202.767L279.163 202.477L274.233 205.247L272.723 204.597L268.973 199.317L258.663 191.507L258.593 187.737L256.983 186.257L256.843 184.217L260.333 179.847L258.273 177.457L261.463 174.157L264.583 174.097L266.703 171.137L267.013 168.617L268.883 167.177L269.733 164.617L270.113 160.137L267.083 160.077L265.963 158.797L262.853 159.607L261.763 155.327L258.503 151.677L260.163 143.437L258.323 137.457L260.843 135.517L261.293 133.187L259.603 130.697L258.703 124.517L253.453 113.687Z" fill="#CCCCCC" stroke="white" stroke-width="0.5"/>
<path d="M122.603 128.157L126.203 134.967L123.243 144.097L131.763 138.637L132.733 139.427L145.263 135.817L146.613 136.347L144.403 138.857L145.103 140.517L146.663 139.447L151.523 141.977L152.933 144.057L151.593 145.967L152.913 149.327L145.733 154.817L144.603 159.747L146.753 165.027L141.693 163.567L131.763 170.277L127.353 175.627L123.203 178.757L111.613 189.797L108.323 186.417L105.263 186.687L106.203 181.517L103.073 179.317L103.523 173.367L93.6729 178.507L90.9529 182.897L87.0329 183.857H85.2729L76.9829 189.167L71.2629 191.177L68.2429 190.037L68.7929 182.617L64.4829 175.217L73.2429 166.117L74.3429 167.707L91.6729 161.367L95.3329 155.527L103.263 151.007L99.5729 147.787L101.553 146.247L101.053 144.847L104.173 142.947L106.313 143.027L106.333 139.627L114.953 135.457L122.113 128.337L122.603 128.157Z" fill="#CCCCCC" stroke="white" stroke-width="0.5"/>
<path d="M307.203 166.487L305.703 164.927L307.093 162.427L309.393 163.667L312.103 161.327L315.203 162.017L319.133 161.047L321.273 162.997L325.743 157.027L327.803 157.417L328.273 161.307L333.873 161.107L333.723 157.517L339.633 159.097L339.343 161.477L339.003 164.047L343.013 165.527L349.513 164.927L353.293 162.767L353.713 164.357L351.093 168.127L351.523 172.657L349.623 172.757L349.713 175.097L344.093 177.897L341.823 177.027L341.083 179.057L338.143 181.007L339.463 181.337L340.743 183.737L339.363 185.417L339.773 189.587L332.823 190.137L331.903 186.617L326.803 190.857L328.113 187.357L327.533 185.847L326.263 186.117L326.633 197.307L328.543 198.037L328.133 199.607L329.853 201.297L332.773 202.497L333.783 205.047L329.543 205.857L325.983 202.767L319.613 196.387L321.423 194.927L320.573 185.077L322.553 177.877L322.143 174.937L317.973 175.907L315.153 174.057L317.993 170.447L317.573 165.677L310.823 164.897L307.203 166.487Z" fill="#CCCCCC" stroke="white" stroke-width="0.5"/>
<path d="M329.543 205.858L333.783 205.048L332.773 202.498L329.863 201.298L328.133 199.608L328.553 198.038L326.633 197.308L326.273 186.118L327.543 185.838L328.123 187.348L326.813 190.848L331.913 186.598L332.833 190.118L339.783 189.568L343.493 189.958L344.583 191.398L342.113 193.498L341.413 199.468L338.943 200.138L340.053 201.178L341.143 200.608L340.783 202.358L342.513 205.598L336.723 207.368L336.653 206.048L335.383 205.758L332.183 205.308L329.753 207.138L329.543 205.858ZM307.203 166.488L310.823 164.888L317.583 165.678L318.003 170.448L315.153 174.048L317.973 175.898L322.143 174.938L322.563 177.868L320.583 185.068L321.433 194.918L319.623 196.368L325.993 202.758L321.623 204.148L314.403 209.568L312.513 209.368L311.243 207.328L308.563 206.128L307.573 207.918L301.823 206.228L295.943 209.168L292.723 206.188L290.083 205.558L288.313 202.888L282.853 202.748L284.933 198.678L282.003 193.118L285.323 188.068L285.893 181.278L289.033 178.348L290.883 179.158L291.273 182.248L294.453 176.248L298.363 173.278L296.633 169.298L301.493 166.738L303.463 167.588L307.203 166.488Z" fill="#CCCCCC" stroke="white" stroke-width="0.5"/>
<path d="M480.473 52.0376L471.883 61.5576L471.953 63.2476L473.993 64.8176L484.273 56.9776L491.503 68.8576L492.533 69.1176L493.473 67.6676L494.783 69.5776L499.953 70.9876L498.133 75.0076L499.013 80.2576L501.923 83.2976V85.0876L499.353 87.8676L495.333 88.2676L492.773 91.1676L489.903 98.9076L486.413 101.528L484.913 105.458L482.783 107.238L476.763 124.888L479.943 133.668L481.253 141.908L480.333 144.098L474.913 148.108L475.323 150.418L484.613 165.248L481.123 166.308L481.003 169.168L479.123 169.758L475.803 175.348L475.643 177.318L476.873 177.968L474.123 180.408L474.233 182.688L472.343 183.238L471.613 185.798L466.323 181.998L453.793 180.328L452.673 179.348L447.033 179.938L444.573 177.358L444.833 173.928L442.913 171.428L444.873 161.628L443.743 157.468L439.333 153.898L435.613 155.828L429.983 153.258L434.783 150.518L436.683 147.638L436.763 136.478L429.383 135.118L420.373 135.418L411.943 126.618L407.153 118.088L390.423 119.888L387.513 119.368L385.323 117.448L383.633 113.708L384.723 112.178L391.203 111.368L393.183 112.738L394.003 111.118L402.113 109.788L403.303 108.398L404.193 105.568L402.253 103.978L404.263 103.228L405.503 100.648L407.743 100.228L409.143 97.6276L407.353 91.1576L405.813 90.8776L403.573 86.4676L407.353 83.3676L408.063 79.4676L409.833 78.9676L409.823 75.6876L412.863 74.9876L414.283 73.3976L416.253 74.6076L416.423 73.3176L419.603 72.5776L414.923 69.6976L415.123 68.1676L412.523 67.1876L411.863 65.5976L413.053 63.8076L417.073 62.6976L418.803 64.3476L422.423 62.7976L423.393 65.3476L426.473 64.9276L427.363 65.9076L432.273 64.3176L433.743 61.0776L434.783 62.9276L435.643 62.3276L436.073 63.5176L439.623 63.9976L440.093 65.9676L441.613 64.9376L445.063 66.7876L446.873 66.8876L449.253 65.2176L451.613 66.3276L454.633 63.6176L454.083 61.6876L452.883 62.2476L454.083 59.9976L452.303 58.7476L450.603 60.4976L447.603 59.4776L449.153 59.8176L449.413 57.7476L452.153 56.6276L453.573 57.3676L454.343 55.5776L457.193 55.6176L457.583 57.5476L459.403 57.9076L456.763 61.5076L461.703 61.6476L460.853 64.6776L462.733 64.2776L464.943 66.6276L466.143 63.1476L467.733 62.7276L479.363 50.5176L480.473 52.0376ZM478.503 87.6276L479.833 82.5576L484.403 81.5276L484.753 83.0576L489.393 79.3176L492.783 78.6776L490.613 76.3476L494.563 74.0176L496.123 72.6876L491.563 69.9176L483.253 67.9276L482.253 69.2176L482.903 70.7876L472.383 75.2976L470.033 74.6976L469.543 78.8476L466.593 80.9776L464.193 81.3576L461.193 80.0676L451.813 82.6076L446.953 81.3776L442.203 82.2076L439.813 88.6676L436.913 89.1676L437.533 90.9976L439.073 90.4576L438.043 92.1476L438.923 93.7176L441.123 93.0476L442.603 95.1476L439.403 97.4276L441.323 103.158L438.823 106.268L443.153 108.648L445.853 108.868L448.123 107.678L451.253 110.098L452.723 109.758L454.553 112.298L457.133 111.068L462.723 114.658L470.183 111.288L473.393 108.628L476.953 103.828L478.973 92.0476L478.503 87.6276Z" fill="#CCCCCC"/>
<path d="M459.603 60.1076L459.423 59.4476M480.473 52.0376L471.883 61.5576L471.953 63.2476L473.993 64.8176L484.273 56.9776L491.503 68.8576L492.533 69.1176L493.473 67.6676L494.783 69.5776L499.953 70.9876L498.133 75.0076L499.013 80.2576L501.923 83.2976V85.0876L499.353 87.8676L495.333 88.2676L492.773 91.1676L489.903 98.9076L486.413 101.528L484.913 105.458L482.783 107.238L476.763 124.888L479.943 133.668L481.253 141.908L480.333 144.098L474.913 148.108L475.323 150.418L484.613 165.248L481.123 166.308L481.003 169.168L479.123 169.758L475.803 175.348L475.643 177.318L476.873 177.968L474.123 180.408L474.233 182.688L472.343 183.238L471.613 185.798L466.323 181.998L453.793 180.328L452.673 179.348L447.033 179.938L444.573 177.358L444.833 173.928L442.913 171.428L444.873 161.628L443.743 157.468L439.333 153.898L435.613 155.828L429.983 153.258L434.783 150.518L436.683 147.638L436.763 136.478L429.383 135.118L420.373 135.418L411.943 126.618L407.153 118.088L390.423 119.888L387.513 119.368L385.323 117.448L383.633 113.708L384.723 112.178L391.203 111.368L393.183 112.738L394.003 111.118L402.113 109.788L403.303 108.398L404.193 105.568L402.253 103.978L404.263 103.228L405.503 100.648L407.743 100.228L409.143 97.6276L407.353 91.1576L405.813 90.8776L403.573 86.4676L407.353 83.3676L408.063 79.4676L409.833 78.9676L409.823 75.6876L412.863 74.9876L414.283 73.3976L416.253 74.6076L416.423 73.3176L419.603 72.5776L414.923 69.6976L415.123 68.1676L412.523 67.1876L411.863 65.5976L413.053 63.8076L417.073 62.6976L418.803 64.3476L422.423 62.7976L423.393 65.3476L426.473 64.9276L427.363 65.9076L432.273 64.3176L433.743 61.0776L434.783 62.9276L435.643 62.3276L436.073 63.5176L439.623 63.9976L440.093 65.9676L441.613 64.9376L445.063 66.7876L446.873 66.8876L449.253 65.2176L451.613 66.3276L454.633 63.6176L454.083 61.6876L452.883 62.2476L454.083 59.9976L452.303 58.7476L450.603 60.4976L447.603 59.4776L449.153 59.8176L449.413 57.7476L452.153 56.6276L453.573 57.3676L454.343 55.5776L457.193 55.6176L457.583 57.5476L459.403 57.9076L456.763 61.5076L461.703 61.6476L460.853 64.6776L462.733 64.2776L464.943 66.6276L466.143 63.1476L467.733 62.7276L479.363 50.5176L480.473 52.0376ZM478.503 87.6276L479.833 82.5576L484.403 81.5276L484.753 83.0576L489.393 79.3176L492.783 78.6776L490.613 76.3476L494.563 74.0176L496.123 72.6876L491.563 69.9176L483.253 67.9276L482.253 69.2176L482.903 70.7876L472.383 75.2976L470.033 74.6976L469.543 78.8476L466.593 80.9776L464.193 81.3576L461.193 80.0676L451.813 82.6076L446.953 81.3776L442.203 82.2076L439.813 88.6676L436.913 89.1676L437.533 90.9976L439.073 90.4576L438.043 92.1476L438.923 93.7176L441.123 93.0476L442.603 95.1476L439.403 97.4276L441.323 103.158L438.823 106.268L443.153 108.648L445.853 108.868L448.123 107.678L451.253 110.098L452.723 109.758L454.553 112.298L457.133 111.068L462.723 114.658L470.183 111.288L473.393 108.628L476.953 103.828L478.973 92.0476L478.503 87.6276Z" stroke="white" stroke-width="0.5"/>
<path d="M356.122 40.8373L356.512 40.8773L351.372 51.2873L348.392 45.3873L351.822 41.9973L353.722 43.0573L356.122 40.8373ZM385.552 16.3873L384.752 16.9673L386.602 19.2673L389.962 19.5273L390.772 21.2673L393.782 21.2473L393.982 23.1873L390.982 22.7873L391.982 23.5073L390.862 25.2673L393.112 26.7473L394.322 30.9973L390.792 31.6773L391.602 29.8773L388.402 27.0773L384.872 26.2973L383.402 27.0573L383.802 24.0573L385.372 23.1573L383.062 20.9173L379.982 20.5573L380.062 18.2573L382.772 16.2173L383.902 16.5173L383.662 14.9973L385.092 14.3973L385.552 16.3873ZM353.792 2.01734L359.442 2.23734L359.642 8.54734L360.992 10.2473L364.122 7.36734L363.052 4.38734L364.382 2.00734L365.882 4.32734L368.392 5.06734L369.742 10.7873L372.482 8.82734L374.332 9.70734L376.102 12.3473L373.542 13.0873L372.292 16.3673L375.472 18.7673L374.222 23.2873L372.872 23.6873L370.932 19.2673L368.532 20.2273L365.872 19.2073L365.682 20.6073L367.272 21.6673L365.002 23.3273L365.692 24.8673L365.682 24.9273L363.242 23.0073L360.652 23.5273L360.812 26.2873L358.612 26.9673L359.102 29.8073L357.662 27.5473L354.032 29.6073L351.442 28.0473L348.982 29.1473V30.6473L347.982 29.4673L347.082 30.0473L347.502 33.0073L342.722 32.7273V33.7873L340.122 32.1073L340.282 34.2673L338.692 32.6873L339.262 30.7273L336.182 31.2273L333.322 28.8273L331.742 28.8673L330.862 27.3073L332.912 25.3073L330.872 22.4273L335.892 17.5273L337.372 17.5473L336.722 14.0273L339.962 9.46734L345.012 6.90734L346.292 7.90734L346.992 6.36734L350.502 5.12734L352.202 6.62734L353.682 5.88734L353.502 4.04734L351.882 3.26734L352.332 0.527344L353.792 2.01734Z" fill="#CCCCCC" stroke="white" stroke-width="0.5"/>
<path d="M234.852 128.738L234.982 128.858L234.312 130.638L232.342 130.598L232.872 128.678L234.492 128.088L234.852 128.738ZM198.002 72.6475L200.232 72.5675L201.972 74.5375L202.682 76.1075L201.862 78.3775L197.832 79.5075L193.012 78.9275L191.862 78.7875L192.602 75.4675L198.002 72.6475ZM271.112 77.0975L269.052 73.0975L270.282 70.5275L271.862 69.1175L272.862 69.9375L274.522 75.6675L274.282 77.0375L273.822 75.9275L271.112 77.0975ZM271.112 77.0975L277.372 79.7775L278.022 82.4375L279.732 82.5375L279.802 87.9175L277.642 90.2575L276.902 94.2675L269.382 98.2175L269.112 95.1775L265.352 94.8775L263.642 93.1075L261.172 99.3775L257.542 100.248L254.762 106.788L252.832 108.278L251.162 109.268L249.502 107.858L247.252 110.298L245.742 107.958L243.322 109.718L240.102 109.618L233.602 102.738L229.322 104.918L219.502 106.368L221.332 108.308L221.602 112.308L224.732 115.678L227.592 115.598L228.672 121.048L231.792 122.378L232.052 127.598L230.192 127.618L228.332 131.478L224.362 130.038L220.262 131.758L219.422 129.268L217.132 127.768L214.902 129.268L211.802 129.188L212.622 131.718L210.122 136.068L203.482 139.668L205.302 144.208L200.782 146.338L199.652 141.178L193.842 142.878L191.212 137.048L193.302 136.218L195.762 137.718L200.452 136.668L198.132 134.278L198.662 133.248L200.522 132.638L201.982 130.248L205.352 130.738L208.252 127.378L205.772 126.528L205.382 123.338L201.762 123.578L201.542 125.318L199.492 124.708V126.228L196.862 128.958L193.002 129.398L192.852 128.348L194.022 128.108L192.232 124.088L190.462 122.388L189.002 123.198L187.112 118.068L190.042 117.728L197.332 113.448L197.492 110.848L204.252 108.528L206.722 104.738L213.092 102.738L216.532 97.0875L218.392 95.6175L215.752 92.4775L213.932 92.0375L214.022 89.5975L211.692 88.6875L211.952 87.2375L203.792 87.5975L199.972 85.7475L200.972 81.2975L205.532 81.4175L205.842 83.6275L209.012 84.6775L211.262 83.9275L212.912 80.9675L212.172 79.2775L219.542 78.5975L217.962 77.2875L217.932 74.2275L219.852 75.7975L224.322 74.9875L225.452 68.9375L222.792 67.5875L223.192 63.7675L227.682 65.1575L229.762 64.2175L228.792 63.3375L229.552 62.5175L231.172 62.3375L231.672 64.6275L235.872 65.7575L236.982 67.4675L235.592 70.6675L233.882 71.6075L233.062 77.6875L230.642 79.4975L226.652 79.4775L226.732 84.9775L227.852 85.4175L228.162 88.0575L235.672 87.0275L239.572 87.7975L241.422 91.4675L245.052 93.7075L248.482 93.0175L249.752 89.1275L253.082 88.6075L254.602 86.5775L259.832 84.7675L258.602 82.3475L260.452 80.3375L263.922 81.7875L271.112 77.0975ZM209.872 61.4775L213.052 62.2575L213.702 63.5475L212.432 66.9675L212.852 69.4775L207.412 70.0175L202.992 71.8275L200.992 69.5175L202.682 67.1275L199.172 65.3175L197.942 65.7975L199.842 62.3575L205.762 65.8375L209.942 62.5975L209.872 61.4775Z" fill="#CCCCCC"/>
<path d="M271.112 77.0975L269.052 73.0975L270.282 70.5275L271.862 69.1175L272.862 69.9375L274.522 75.6675L274.282 77.0375L273.822 75.9275L271.112 77.0975ZM271.112 77.0975L277.372 79.7775L278.022 82.4375L279.732 82.5375L279.802 87.9175L277.642 90.2575L276.902 94.2675L269.382 98.2175L269.112 95.1775L265.352 94.8775L263.642 93.1075L261.172 99.3775L257.542 100.248L254.762 106.788L252.832 108.278L251.162 109.268L249.502 107.858L247.252 110.298L245.742 107.958L243.322 109.718L240.102 109.618L233.602 102.738L229.322 104.918L219.502 106.368L221.332 108.308L221.602 112.308L224.732 115.678L227.592 115.598L228.672 121.048L231.792 122.378L232.052 127.598L230.192 127.618L228.332 131.478L224.362 130.038L220.262 131.758L219.422 129.268L217.132 127.768L214.902 129.268L211.802 129.188L212.622 131.718L210.122 136.068L203.482 139.668L205.302 144.208L200.782 146.338L199.652 141.178L193.842 142.878L191.212 137.048L193.302 136.218L195.762 137.718L200.452 136.668L198.132 134.278L198.662 133.248L200.522 132.638L201.982 130.248L205.352 130.738L208.252 127.378L205.772 126.528L205.382 123.338L201.762 123.578L201.542 125.318L199.492 124.708V126.228L196.862 128.958L193.002 129.398L192.852 128.348L194.022 128.108L192.232 124.088L190.462 122.388L189.002 123.198L187.112 118.068L190.042 117.728L197.332 113.448L197.492 110.848L204.252 108.528L206.722 104.738L213.092 102.738L216.532 97.0875L218.392 95.6175L215.752 92.4775L213.932 92.0375L214.022 89.5975L211.692 88.6875L211.952 87.2375L203.792 87.5975L199.972 85.7475L200.972 81.2975L205.532 81.4175L205.842 83.6275L209.012 84.6775L211.262 83.9275L212.912 80.9675L212.172 79.2775L219.542 78.5975L217.962 77.2875L217.932 74.2275L219.852 75.7975L224.322 74.9875L225.452 68.9375L222.792 67.5875L223.192 63.7675L227.682 65.1575L229.762 64.2175L228.792 63.3375L229.552 62.5175L231.172 62.3375L231.672 64.6275L235.872 65.7575L236.982 67.4675L235.592 70.6675L233.882 71.6075L233.062 77.6875L230.642 79.4975L226.652 79.4775L226.732 84.9775L227.852 85.4175L228.162 88.0575L235.672 87.0275L239.572 87.7975L241.422 91.4675L245.052 93.7075L248.482 93.0175L249.752 89.1275L253.082 88.6075L254.602 86.5775L259.832 84.7675L258.602 82.3475L260.452 80.3375L263.922 81.7875L271.112 77.0975ZM234.852 128.738L234.982 128.858L234.312 130.638L232.342 130.598L232.872 128.678L234.492 128.088L234.852 128.738ZM198.002 72.6475L200.232 72.5675L201.972 74.5375L202.682 76.1075L201.862 78.3775L197.832 79.5075L193.012 78.9275L191.862 78.7875L192.602 75.4675L198.002 72.6475ZM209.872 61.4775L213.052 62.2575L213.702 63.5475L212.432 66.9675L212.852 69.4775L207.412 70.0175L202.992 71.8275L200.992 69.5175L202.682 67.1275L199.172 65.3175L197.942 65.7975L199.842 62.3575L205.762 65.8375L209.942 62.5975L209.872 61.4775Z" stroke="white" stroke-width="0.5"/>
<path d="M385.302 117.457L387.492 119.377L390.402 119.887L407.132 118.087L411.922 126.617L406.792 134.077L407.252 140.437L404.992 142.807L407.822 144.057L404.262 151.187L400.742 153.377H398.022L398.112 155.567L396.692 156.277L399.042 157.517L400.242 160.597L403.112 163.137L401.882 164.187L403.692 167.197L407.122 168.697L405.082 172.927L406.162 175.057L402.292 176.597L394.032 181.537L392.222 181.557L391.092 183.307L390.522 177.857L388.932 178.957L387.662 173.487L385.452 172.297L382.392 174.407L380.052 172.317L371.602 177.087L369.582 171.117L366.352 171.707L360.152 169.917L357.782 170.307L357.522 163.417L354.912 162.147L353.292 162.767L349.512 164.927L343.012 165.527L339.002 164.047L339.342 161.477L344.582 159.927L345.342 156.727L335.462 148.397L330.082 149.187L328.612 148.067L332.522 141.107L337.102 138.387L337.612 138.617L339.902 138.817L342.562 141.167L346.622 143.437L351.902 142.357L352.372 144.787L358.182 142.157L362.452 142.357L365.312 138.227L367.022 137.987L368.142 136.347L368.642 132.827L370.802 131.047L369.642 128.557L368.022 125.427L371.162 120.957L383.082 117.037L385.302 117.457Z" fill="#CCCCCC" stroke="white" stroke-width="0.5"/>
<path d="M484.263 56.9774L473.983 64.8174L471.943 63.2474L471.873 61.5574L480.463 52.0374L484.263 56.9774ZM371.223 23.9974L372.873 23.6774L374.223 23.2774L378.433 24.1774L383.413 27.0574L384.883 26.2974L388.413 27.0774L391.613 29.8774L390.803 31.6774L394.333 30.9974L397.913 32.2174L413.993 24.7074L423.043 26.0274L427.263 28.4074L431.923 28.7074L433.893 30.7874L436.063 30.5474L473.663 49.0474L479.333 50.5374L467.703 62.7474L466.113 63.1674L464.913 66.6474L462.703 64.2974L460.823 64.6974L461.673 61.6674L456.733 61.5274L459.373 57.9274L457.553 57.5674L457.163 55.6374L454.313 55.5974L453.543 57.3874L452.123 56.6474L449.383 57.7674L449.123 59.8374L447.573 59.4974L450.573 60.5174L452.273 58.7674L454.053 60.0174L452.853 62.2674L454.053 61.7074L454.603 63.6374L451.583 66.3474L449.223 65.2374L446.843 66.9074L445.033 66.8074L441.583 64.9574L440.063 65.9874L439.593 64.0174L436.043 63.5374L435.613 62.3474L434.753 62.9474L433.713 61.0974L432.243 64.3374L427.333 65.9274L426.443 64.9474L423.363 65.3674L422.393 62.8174L418.773 64.3674L417.043 62.7174L413.023 63.8274L411.833 65.6174L412.493 67.2074L415.093 68.1874L414.893 69.7174L419.573 72.5974L416.393 73.3374L416.223 74.6274L414.253 73.4174L412.833 75.0074L409.793 75.7074L409.803 78.9874L408.033 79.4874L407.323 83.3874L403.543 86.4874L400.913 82.0174L398.123 81.2574L399.373 78.7774L398.983 75.0774L400.653 75.1174L402.033 74.5574L398.643 73.9574L398.723 71.6474L395.483 67.5474L395.783 65.4574L397.373 64.8374L397.303 56.7374L389.773 55.0274L388.083 50.7074L391.093 49.2474L388.383 47.2374L385.243 47.6774L385.023 45.3074L377.223 43.4774L376.093 40.1474L377.163 37.4374L384.723 41.7074L387.773 32.6074L384.843 31.5674L384.853 28.9874L382.703 28.8074L381.763 31.5274L377.113 34.1674L371.823 33.4474L369.263 31.9874L365.663 24.9374L365.673 24.8774L369.353 22.8374L371.223 23.9974Z" fill="#CCCCCC"/>
<path d="M459.423 59.4474L459.603 60.1074M484.263 56.9774L473.983 64.8174L471.943 63.2474L471.873 61.5574L480.463 52.0374L484.263 56.9774ZM371.223 23.9974L372.873 23.6774L374.223 23.2774L378.433 24.1774L383.413 27.0574L384.883 26.2974L388.413 27.0774L391.613 29.8774L390.803 31.6774L394.333 30.9974L397.913 32.2174L413.993 24.7074L423.043 26.0274L427.263 28.4074L431.923 28.7074L433.893 30.7874L436.063 30.5474L473.663 49.0474L479.333 50.5374L467.703 62.7474L466.113 63.1674L464.913 66.6474L462.703 64.2974L460.823 64.6974L461.673 61.6674L456.733 61.5274L459.373 57.9274L457.553 57.5674L457.163 55.6374L454.313 55.5974L453.543 57.3874L452.123 56.6474L449.383 57.7674L449.123 59.8374L447.573 59.4974L450.573 60.5174L452.273 58.7674L454.053 60.0174L452.853 62.2674L454.053 61.7074L454.603 63.6374L451.583 66.3474L449.223 65.2374L446.843 66.9074L445.033 66.8074L441.583 64.9574L440.063 65.9874L439.593 64.0174L436.043 63.5374L435.613 62.3474L434.753 62.9474L433.713 61.0974L432.243 64.3374L427.333 65.9274L426.443 64.9474L423.363 65.3674L422.393 62.8174L418.773 64.3674L417.043 62.7174L413.023 63.8274L411.833 65.6174L412.493 67.2074L415.093 68.1874L414.893 69.7174L419.573 72.5974L416.393 73.3374L416.223 74.6274L414.253 73.4174L412.833 75.0074L409.793 75.7074L409.803 78.9874L408.033 79.4874L407.323 83.3874L403.543 86.4874L400.913 82.0174L398.123 81.2574L399.373 78.7774L398.983 75.0774L400.653 75.1174L402.033 74.5574L398.643 73.9574L398.723 71.6474L395.483 67.5474L395.783 65.4574L397.373 64.8374L397.303 56.7374L389.773 55.0274L388.083 50.7074L391.093 49.2474L388.383 47.2374L385.243 47.6774L385.023 45.3074L377.223 43.4774L376.093 40.1474L377.163 37.4374L384.723 41.7074L387.773 32.6074L384.843 31.5674L384.853 28.9874L382.703 28.8074L381.763 31.5274L377.113 34.1674L371.823 33.4474L369.263 31.9874L365.663 24.9374L365.673 24.8774L369.353 22.8374L371.223 23.9974Z" stroke="white" stroke-width="0.5"/>
<path d="M367.673 243.448L370.273 243.058L372.703 245.038L374.313 243.908L375.863 244.827L379.143 244.378L384.063 246.448L388.013 245.038L388.433 246.758L390.083 246.488L398.983 241.738L399.733 240.138L398.373 236.538L400.653 234.928L403.203 235.848L404.703 233.188L405.943 238.948L411.673 237.248L415.613 239.498L416.883 241.988L413.753 249.558L414.223 257.048L417.743 263.148L422.523 263.928L423.943 266.857L423.173 272.318L425.023 276.438L423.233 277.667L424.003 283.947L423.073 288.667L420.683 289.678L420.143 291.077L419.793 293.068L421.293 295.637L418.403 299.917L421.493 305.757L422.883 314.838L426.853 317.208L429.593 321.477L432.753 323.458L426.853 330.058L420.473 333.238L422.573 339.558L420.953 343.917L417.253 344.368L413.033 346.718L411.603 349.468L414.583 358.068L412.393 358.878L411.703 360.488L410.233 360.447L409.613 362.618L412.823 364.458L413.493 370.398L418.903 371.808L420.033 373.718L421.043 373.488L421.073 376.018L422.513 375.438L423.013 376.288L417.643 382.007L417.723 384.637L415.133 390.007L415.743 391.588L409.563 391.438L410.453 388.798L408.603 387.818L405.783 388.338L404.933 386.757L398.853 389.077L399.213 386.398L403.423 382.128L402.043 381.917L401.343 377.938L400.093 376.917L400.433 374.808L396.943 369.298L396.833 364.887L393.113 364.018L388.013 358.658L381.643 358.308L383.763 353.278L388.563 348.257L388.173 346.628L389.683 347.058L390.933 344.968L390.863 342.038L384.653 336.958L381.453 338.318L378.153 336.607L375.923 332.917L372.753 336.408L369.173 336.778L364.493 334.588L363.133 332.688L358.483 332.917L356.363 329.208L357.183 326.408L353.283 324.738L351.903 320.798L348.453 317.748L347.483 314.248L339.453 311.607L338.303 309.178L335.823 308.378L335.693 306.958L337.463 305.167L333.513 298.607L338.693 291.718L338.433 287.727L339.423 285.977L338.303 281.197L339.603 279.428L337.623 272.148L339.293 270.257L335.693 266.137L328.083 268.518L329.163 260.648L335.963 260.018L340.643 253.748L346.273 251.458L345.453 247.468L346.583 243.728L348.943 241.848L350.133 242.868L353.623 242.478L355.873 244.378L359.973 243.708L362.093 246.268L367.673 243.448ZM407.443 359.697L406.123 359.268L405.093 363.018L407.193 363.678L407.443 359.697Z" fill="#CCCCCC" stroke="white" stroke-width="0.5"/>
<path d="M353.293 162.767L354.913 162.147L357.523 163.417L357.783 170.307L360.153 169.917L366.353 171.707L369.583 171.117L371.603 177.087L380.053 172.317L382.393 174.407L385.453 172.297L387.663 173.487L388.933 178.957L390.523 177.857L391.093 183.307L392.223 181.557L394.033 181.537L402.293 176.597L404.693 180.357L405.183 185.157L393.753 191.977L395.003 194.777L394.453 197.707L390.133 201.517L387.843 201.887L388.623 206.797L386.543 207.607L385.753 212.607L381.613 214.337L379.233 211.137L377.053 212.787L376.863 216.377L371.733 220.007L369.983 219.217L367.103 221.217L367.633 226.647L364.403 229.627L364.003 232.627L367.663 236.187L367.673 243.447L362.103 246.227L359.983 243.667L355.883 244.327L353.623 242.437L350.133 242.827L348.943 241.807L346.583 243.687L345.453 247.417L346.273 251.407L340.643 253.697L334.143 250.607L331.553 243.767L331.303 239.377L333.253 234.097L333.273 229.857L331.623 229.117L329.883 224.787L330.113 222.297V221.357L333.973 222.587L337.263 222.117L337.613 217.947L336.653 217.177L336.963 213.977L335.733 212.647L335.443 209.507L336.713 207.387L342.493 205.617L340.773 202.377L341.133 200.627L340.043 201.197L338.933 200.157L341.403 199.487L342.103 193.517L344.573 191.407L343.483 189.977L339.773 189.587L339.363 185.417L340.743 183.737L339.463 181.337L338.143 181.007L341.083 179.057L341.823 177.027L344.093 177.897L349.713 175.097L349.623 172.757L351.523 172.657L351.093 168.127L353.713 164.357L353.293 162.767Z" fill="#CCCCCC" stroke="white" stroke-width="0.5"/>
<path d="M68.2425 190.037L71.2625 191.177L76.9825 189.167L85.2625 183.857H87.0325L90.9425 182.897L93.6725 178.507L103.523 173.367L103.073 179.317L106.203 181.517L105.263 186.687L108.323 186.407L111.613 189.787L106.483 194.777L111.383 200.087L112.193 199.597L111.193 202.327L111.693 201.537L113.983 203.537L114.883 203.027L117.623 205.497L122.233 202.567L124.823 204.867L129.033 203.457L129.263 204.267L131.973 199.217L130.503 198.157L129.373 199.667L128.433 199.177L129.203 197.857L128.263 195.047L131.853 189.937L129.583 187.337L127.003 188.107L130.623 186.257L127.263 183.897L123.203 178.737L127.343 175.607L131.873 180.747L131.203 182.047L132.953 182.577L136.583 187.297L135.623 184.287L137.683 183.127L138.613 184.207L139.763 185.877L137.753 189.867L138.253 191.307L139.923 190.537L138.993 192.637L140.273 193.837L139.243 196.017L136.373 194.897L135.373 197.397L136.773 199.797L135.453 202.727L133.453 203.437L130.443 208.187L129.643 207.557L128.833 208.637L130.423 209.877L131.843 209.307L133.233 211.287L132.453 213.467L127.113 218.667L126.613 220.647L122.743 223.527L123.913 225.017L123.383 227.547L121.463 228.547L118.773 227.157L116.753 229.997L114.083 229.747L114.743 237.657L113.553 244.057L116.023 243.487L116.163 242.017L118.683 243.997L120.493 242.447L122.743 243.447L123.053 243.677L124.183 246.177L125.543 246.807L127.403 245.087L127.943 246.947L126.813 247.217L122.453 252.967L121.643 250.857L118.293 251.577L117.583 250.427L115.653 253.987L120.603 260.177H122.603L127.283 254.917L127.063 257.437L129.143 256.437L132.423 258.767L134.943 258.647L137.303 260.677L138.553 263.857L138.313 266.847L140.023 269.147L138.913 271.197L143.583 269.307L144.013 266.707L149.353 261.517L154.673 261.617L157.763 259.407L161.123 253.447L163.203 253.387L167.183 249.947L169.303 252.687L173.123 248.507L174.753 255.667L174.033 259.087L172.513 260.107L172.983 261.417L171.363 261.707L172.453 268.127L171.023 270.527L167.403 270.707L167.093 271.957L169.403 275.527L167.233 282.817L169.253 282.837L170.193 286.017L172.043 286.247L170.653 287.047L171.003 292.467L166.623 297.397L167.673 300.277L166.293 301.367L166.573 303.857L165.153 304.207L160.103 310.237L157.903 310.527L157.593 313.017L155.703 315.217L145.573 320.057L142.743 316.427L139.343 307.247L136.343 304.157L135.573 301.087L132.563 298.557L131.743 292.367L129.993 290.397L126.943 290.127L125.173 287.557L125.553 283.207L116.883 273.437L98.2625 268.067L76.2425 267.597L63.7725 275.327L40.9325 285.957L38.8325 289.737L30.6725 285.547L29.3625 286.817L32.7925 289.977L37.6125 292.277L35.9425 295.897L33.0725 301.247L25.5525 297.447L23.0825 294.717L29.1025 285.117L27.8125 282.817L26.4725 283.067L19.0125 276.827L14.8325 275.307L17.7425 270.137L15.9625 266.427L19.1825 262.777L21.5025 257.127L24.7825 253.047L25.8725 253.337L27.3025 250.307L21.0425 244.167L30.2925 236.557L44.2725 221.877L53.6925 217.147L56.1325 215.397L56.0425 214.127L58.4325 213.397L59.3925 210.607L65.3825 207.627L68.0025 202.557L64.9025 200.097L64.2925 197.977L65.5225 197.287L65.8725 193.887L68.2425 190.037ZM115.723 212.527L113.403 212.797L112.753 214.347L115.603 214.487L118.123 212.877L122.923 214.897L123.373 214.307L125.383 210.187L122.523 207.497L121.933 206.477L121.463 205.257L120.883 205.197L116.553 212.307L115.723 212.527ZM112.423 210.487L111.043 210.137L110.613 209.727L107.333 213.597L109.183 216.387L110.383 215.697L111.193 214.697L112.423 210.487ZM28.9725 289.877L30.8025 289.737L30.1525 288.317L29.8425 288.377L29.7925 288.687L28.9725 289.877ZM147.963 165.387L149.853 166.767L149.053 173.017L153.583 180.067L152.493 181.527L149.583 183.927L150.813 186.147L146.173 191.357L145.283 190.467L146.603 188.557L145.303 187.357L146.113 185.977L143.513 184.497L142.423 185.977L141.183 185.737L140.423 184.837L142.633 182.807L138.743 178.847L139.483 176.797L136.543 175.817L131.753 170.267L141.683 163.567L146.743 165.027L147.963 165.387Z" fill="#CCCCCC" stroke="white" stroke-width="0.5"/>
<path d="M331.622 229.117L333.272 229.857L333.252 234.097L331.302 239.377L331.552 243.767L334.142 250.607L340.642 253.697L335.962 259.967L329.162 260.597L328.082 268.467L324.942 268.837L319.712 273.867L317.092 274.087L315.042 277.347L318.762 279.037L318.802 281.667L314.322 285.747H311.352L311.262 289.287L306.232 291.527L304.272 296.617L298.502 298.907L294.692 297.747L286.262 306.127L290.782 308.187L291.292 310.427L294.672 312.957L298.262 321.577L296.192 324.587L296.512 328.517L291.482 331.137L290.002 334.917L280.202 337.187L278.792 342.437L280.572 347.977L277.492 350.167L278.132 351.587L277.192 354.157L275.722 354.217L274.252 357.257L272.622 356.487L263.342 356.947L261.272 360.447L259.432 361.207L258.562 371.787L257.382 372.477L251.752 370.527L248.782 372.247L244.602 368.397L242.292 368.017L240.072 371.027L238.332 371.107L236.442 368.997L236.402 365.967L232.922 364.537L230.512 360.647L227.052 362.177L220.462 362.057L218.602 358.747L215.362 358.957L214.142 360.467L214.002 364.787L208.152 363.687L204.612 366.447L204.712 369.037L201.602 369.657L197.732 373.527L195.322 373.567L193.292 376.307L187.482 372.987L184.432 373.677L180.582 371.577L175.752 377.947L174.582 377.057L170.142 378.087L166.732 383.687L164.462 382.737L162.002 379.687L156.912 383.607L154.672 383.547L153.592 380.037L147.062 371.207L146.222 365.177L142.552 362.557L144.522 360.587L142.672 358.807L142.542 356.987L139.102 355.437L138.532 352.557L136.062 350.327L134.512 346.357L132.672 345.817L132.652 344.047L130.642 344.027L126.372 348.037L124.052 346.297L126.452 342.037L125.472 337.827L127.482 332.177L118.982 330.607L116.352 331.287L113.812 329.657L113.232 324.627L115.852 320.957L114.742 316.817L117.112 311.377L121.622 306.787L122.932 301.927L122.162 299.977L120.482 299.997L118.022 297.777L117.632 295.947L114.152 294.047L114.042 292.347L112.132 291.457L110.272 287.417L110.982 285.667L113.212 285.047L114.992 282.687L114.542 280.617L116.942 273.437L125.622 283.207L125.242 287.557L127.012 290.127L130.062 290.397L131.812 292.367L132.632 298.557L135.642 301.087L136.412 304.167L139.412 307.257L142.812 316.437L145.642 320.067L155.772 315.227L157.662 313.037L157.972 310.547L160.172 310.247L165.222 304.227L166.632 303.877L166.352 301.387L167.732 300.297L166.672 297.417L171.062 292.487L175.212 292.367L176.632 290.717L176.582 286.817L181.322 285.477L183.082 283.597L182.812 288.237L183.742 289.607L188.962 288.377L195.072 283.327L200.362 281.357L203.522 283.247L205.882 281.597L207.012 284.417L213.922 282.977L216.132 280.777L212.492 278.567L213.162 276.777L218.972 275.297L221.492 276.347L223.422 271.567L225.782 269.677L237.872 275.587L255.312 263.217L259.562 263.567L265.932 260.677L268.372 257.647L272.072 256.077L272.532 254.327L271.202 251.327L277.912 246.817L291.742 250.017L293.432 251.897L299.792 252.997L300.602 255.167L311.032 253.307L317.252 250.097L318.842 247.637L323.522 245.637L325.752 242.507L324.972 239.827L326.412 232.957L329.432 230.667L330.052 228.847L331.622 229.117Z" fill="#CCCCCC" stroke="white" stroke-width="0.5"/>
<path d="M331.283 111.647L332.983 116.797L335.643 116.507L341.333 119.887L345.333 117.597L350.973 116.997L356.623 119.927L357.853 126.717L365.293 127.167L366.213 129.407L369.643 128.557L370.803 131.047L368.643 132.827L368.143 136.347L367.023 137.987L365.313 138.227L362.453 142.357L358.183 142.157L352.373 144.787L351.903 142.357L346.623 143.437L342.563 141.167L342.663 138.557L340.863 136.047L337.613 138.617L337.103 138.387L336.453 135.477L332.473 136.877L331.673 133.267L332.103 128.537L330.303 125.947L330.803 122.347L329.353 116.387L331.283 111.647Z" fill="#CCCCCC" stroke="white" stroke-width="0.5"/>
<path d="M365.673 24.9173L369.273 31.9673L371.843 33.4273L377.133 34.1473L381.783 31.5173L382.733 28.7973L384.873 28.9773L384.863 31.5573L387.783 32.5873L384.743 41.6873L377.183 37.4173L376.113 40.1373L377.253 43.4673L385.053 45.2973L385.263 47.6773L388.403 47.2373L391.123 49.2473L388.113 50.7073L389.793 55.0273L397.323 56.7373L397.393 64.8473L395.803 65.4573L395.503 67.5473L398.743 71.6473L398.663 73.9573L402.053 74.5473L400.673 75.1073L399.003 75.0673L399.393 78.7673L398.133 81.2473L400.933 82.0073L403.563 86.4773L405.803 90.8873L407.333 91.1673L409.133 97.6273L407.733 100.227L405.493 100.647L404.243 103.227L402.233 103.977L404.183 105.567L403.293 108.397L402.103 109.787L393.993 111.117L393.173 112.737L391.183 111.377L384.713 112.187L383.623 113.707L385.303 117.457L383.083 117.037L371.163 120.957L368.023 125.427L369.643 128.557L366.213 129.407L365.293 127.167L357.853 126.717L356.623 119.927L350.973 116.997L345.333 117.597L341.333 119.887L335.643 116.507L332.983 116.797L331.283 111.647L328.583 103.657L329.783 104.017L334.013 101.477L337.543 94.9573L334.903 96.5573L331.943 96.4173L332.323 94.2573L330.663 92.3773L331.133 87.6473L329.613 86.1973L329.293 83.6573L326.793 81.6873L328.713 77.9073L328.413 76.0073L326.693 75.0673L328.133 74.5273L327.643 72.5273L328.583 71.4873L325.643 68.3673L326.863 67.4073L326.683 65.5773L325.313 65.4973L324.513 61.3373L325.043 59.7073L327.233 59.1473L327.763 56.4773L329.233 56.6373L332.283 52.5773L332.733 48.1473L334.643 48.7073L342.643 45.8173L341.993 44.2873L339.113 45.1973L337.653 41.7273L339.153 41.4073L340.673 39.0973L344.543 38.5573L345.893 35.4873L348.713 35.9473L352.833 38.6573L353.533 39.7773L351.823 41.9873L348.393 45.3773L351.373 51.2773L356.513 40.8773L357.683 38.9573L356.473 33.4473L358.203 31.6173L358.933 33.2673L357.953 34.1273L359.103 34.5073L360.883 32.0673L359.093 29.7973L358.603 26.9573L360.803 26.2773L360.643 23.5273L363.233 23.0073L365.673 24.9173Z" fill="#CCCCCC" stroke="white" stroke-width="0.5"/>
</svg>
